<?xml version="1.0" encoding="utf-8"?>
<!-- Generator: Adobe Illustrator 16.0.0, SVG Export Plug-In . SVG Version: 6.00 Build 0)  -->
<!DOCTYPE svg PUBLIC "-//W3C//DTD SVG 1.1//EN" "http://www.w3.org/Graphics/SVG/1.1/DTD/svg11.dtd">
<svg version="1.1" xmlns="http://www.w3.org/2000/svg" xmlns:xlink="http://www.w3.org/1999/xlink" x="0px" y="0px" width="1280px"
	 height="800px" viewBox="0 0 1280 800" enable-background="new 0 0 1280 800" xml:space="preserve">
<g id="Fond">
	<rect x="-0.5" y="0.5" stroke="#FFFFFF" stroke-miterlimit="10" width="1280" height="800"/>
</g>
<g id="Repere">
</g>
<g id="Calque_1">
</g>
<g id="dessin">
	<path fill="none" stroke="#FFFFFF" stroke-width="3" stroke-miterlimit="10" d="M683.5,451.753c0,2.069-1.678,3.747-3.747,3.747
		h-6.506c-2.069,0-3.747-1.678-3.747-3.747v-6.506c0-2.069,1.678-3.747,3.747-3.747h6.506c2.069,0,3.747,1.678,3.747,3.747V451.753z
		"/>
	<path fill="none" stroke="#FFFFFF" stroke-width="3" stroke-miterlimit="10" d="M827.5,507.753c0,2.069-1.678,3.747-3.747,3.747
		h-6.506c-2.069,0-3.747-1.678-3.747-3.747v-6.506c0-2.069,1.678-3.747,3.747-3.747h6.506c2.069,0,3.747,1.678,3.747,3.747V507.753z
		"/>
	<path fill="none" stroke="#FFFFFF" stroke-width="3" stroke-miterlimit="10" d="M723.5,595.753c0,2.069-1.678,3.747-3.747,3.747
		h-6.506c-2.069,0-3.747-1.678-3.747-3.747v-6.506c0-2.069,1.678-3.747,3.747-3.747h6.506c2.069,0,3.747,1.678,3.747,3.747V595.753z
		"/>
	<path fill="none" stroke="#FFFFFF" stroke-width="3" stroke-miterlimit="10" d="M809.5,556.753c0,2.069-1.678,3.747-3.747,3.747
		h-6.506c-2.069,0-3.747-1.678-3.747-3.747v-6.506c0-2.069,1.678-3.747,3.747-3.747h6.506c2.069,0,3.747,1.678,3.747,3.747V556.753z
		"/>
	<path fill="none" stroke="#FFFFFF" stroke-width="3" stroke-miterlimit="10" d="M644.5,495.753c0,2.069-1.678,3.747-3.747,3.747
		h-6.506c-2.069,0-3.747-1.678-3.747-3.747v-6.506c0-2.069,1.678-3.747,3.747-3.747h6.506c2.069,0,3.747,1.678,3.747,3.747V495.753z
		"/>
	<path fill="none" stroke="#FFFFFF" stroke-width="3" stroke-miterlimit="10" d="M798.5,451.753c0,2.069-1.678,3.747-3.747,3.747
		h-6.506c-2.069,0-3.747-1.678-3.747-3.747v-6.506c0-2.069,1.678-3.747,3.747-3.747h6.506c2.069,0,3.747,1.678,3.747,3.747V451.753z
		"/>
	<path fill="none" stroke="#FFFFFF" stroke-width="3" stroke-miterlimit="10" d="M700.5,525.753c0,2.069-1.678,3.747-3.747,3.747
		h-6.506c-2.069,0-3.747-1.678-3.747-3.747v-6.506c0-2.069,1.678-3.747,3.747-3.747h6.506c2.069,0,3.747,1.678,3.747,3.747V525.753z
		"/>
	<path fill="none" stroke="#FFFFFF" stroke-width="3" stroke-miterlimit="10" d="M746.5,702.753c0,2.069-1.678,3.747-3.747,3.747
		h-6.506c-2.069,0-3.747-1.678-3.747-3.747v-6.506c0-2.069,1.678-3.747,3.747-3.747h6.506c2.069,0,3.747,1.678,3.747,3.747V702.753z
		"/>
	<path fill="none" stroke="#FFFFFF" stroke-width="3" stroke-miterlimit="10" d="M391.5,514.753c0,2.069-1.678,3.747-3.747,3.747
		h-6.506c-2.069,0-3.747-1.678-3.747-3.747v-6.506c0-2.069,1.678-3.747,3.747-3.747h6.506c2.069,0,3.747,1.678,3.747,3.747V514.753z
		"/>
	<path fill="none" stroke="#FFFFFF" stroke-width="3" stroke-miterlimit="10" d="M567.5,556.753c0,2.069-1.678,3.747-3.747,3.747
		h-6.506c-2.069,0-3.747-1.678-3.747-3.747v-6.506c0-2.069,1.678-3.747,3.747-3.747h6.506c2.069,0,3.747,1.678,3.747,3.747V556.753z
		"/>
	<path fill="none" stroke="#FFFFFF" stroke-width="3" stroke-miterlimit="10" d="M802.5,639.753c0,2.069-1.678,3.747-3.747,3.747
		h-6.506c-2.069,0-3.747-1.678-3.747-3.747v-6.506c0-2.069,1.678-3.747,3.747-3.747h6.506c2.069,0,3.747,1.678,3.747,3.747V639.753z
		"/>
	<path fill="none" stroke="#FFFFFF" stroke-width="3" stroke-miterlimit="10" d="M589.5,646.753c0,2.069-1.678,3.747-3.747,3.747
		h-6.506c-2.069,0-3.747-1.678-3.747-3.747v-6.506c0-2.069,1.678-3.747,3.747-3.747h6.506c2.069,0,3.747,1.678,3.747,3.747V646.753z
		"/>
	<path fill="none" stroke="#FFFFFF" stroke-width="3" stroke-miterlimit="10" d="M516.5,456.753c0,2.069-1.678,3.747-3.747,3.747
		h-6.506c-2.069,0-3.747-1.678-3.747-3.747v-6.506c0-2.069,1.678-3.747,3.747-3.747h6.506c2.069,0,3.747,1.678,3.747,3.747V456.753z
		"/>
	<path fill="none" stroke="#FFFFFF" stroke-width="3" stroke-miterlimit="10" d="M502.5,553.753c0,2.069-1.678,3.747-3.747,3.747
		h-6.506c-2.069,0-3.747-1.678-3.747-3.747v-6.506c0-2.069,1.678-3.747,3.747-3.747h6.506c2.069,0,3.747,1.678,3.747,3.747V553.753z
		"/>
	<path fill="none" stroke="#FFFFFF" stroke-width="3" stroke-miterlimit="10" d="M768.5,420.753c0,2.069-1.678,3.747-3.747,3.747
		h-6.506c-2.069,0-3.747-1.678-3.747-3.747v-6.506c0-2.069,1.678-3.747,3.747-3.747h6.506c2.069,0,3.747,1.678,3.747,3.747V420.753z
		"/>
	<path fill="none" stroke="#FFFFFF" stroke-width="3" stroke-miterlimit="10" d="M856.5,552.753c0,2.069-1.678,3.747-3.747,3.747
		h-6.506c-2.069,0-3.747-1.678-3.747-3.747v-6.506c0-2.069,1.678-3.747,3.747-3.747h6.506c2.069,0,3.747,1.678,3.747,3.747V552.753z
		"/>
	<path fill="none" stroke="#FFFFFF" stroke-width="3" stroke-miterlimit="10" d="M636.5,559.753c0,2.069-1.678,3.747-3.747,3.747
		h-6.506c-2.069,0-3.747-1.678-3.747-3.747v-6.506c0-2.069,1.678-3.747,3.747-3.747h6.506c2.069,0,3.747,1.678,3.747,3.747V559.753z
		"/>
	<path fill="none" stroke="#FFFFFF" stroke-width="3" stroke-miterlimit="10" d="M766.5,546.753c0,2.069-1.678,3.747-3.747,3.747
		h-6.506c-2.069,0-3.747-1.678-3.747-3.747v-6.506c0-2.069,1.678-3.747,3.747-3.747h6.506c2.069,0,3.747,1.678,3.747,3.747V546.753z
		"/>
	<path fill="none" stroke="#FFFFFF" stroke-width="3" stroke-miterlimit="10" d="M726.5,435.753c0,2.069-1.678,3.747-3.747,3.747
		h-6.506c-2.069,0-3.747-1.678-3.747-3.747v-6.506c0-2.069,1.678-3.747,3.747-3.747h6.506c2.069,0,3.747,1.678,3.747,3.747V435.753z
		"/>
	<path fill="none" stroke="#FFFFFF" stroke-width="3" stroke-miterlimit="10" d="M828.5,449.753c0,2.069-1.678,3.747-3.747,3.747
		h-6.506c-2.069,0-3.747-1.678-3.747-3.747v-6.506c0-2.069,1.678-3.747,3.747-3.747h6.506c2.069,0,3.747,1.678,3.747,3.747V449.753z
		"/>
	<path fill="none" stroke="#FFFFFF" stroke-width="3" stroke-miterlimit="10" d="M1057.5,137.753c0,2.069-1.678,3.747-3.747,3.747
		h-6.506c-2.069,0-3.747-1.678-3.747-3.747v-6.506c0-2.069,1.678-3.747,3.747-3.747h6.506c2.069,0,3.747,1.678,3.747,3.747V137.753z
		"/>
	<path fill="none" stroke="#FFFFFF" stroke-width="3" stroke-miterlimit="10" d="M1201.5,193.753c0,2.069-1.678,3.747-3.747,3.747
		h-6.506c-2.069,0-3.747-1.678-3.747-3.747v-6.506c0-2.069,1.678-3.747,3.747-3.747h6.506c2.069,0,3.747,1.678,3.747,3.747V193.753z
		"/>
	<path fill="none" stroke="#FFFFFF" stroke-width="3" stroke-miterlimit="10" d="M1097.5,281.753c0,2.069-1.678,3.747-3.747,3.747
		h-6.506c-2.069,0-3.747-1.678-3.747-3.747v-6.506c0-2.069,1.678-3.747,3.747-3.747h6.506c2.069,0,3.747,1.678,3.747,3.747V281.753z
		"/>
	<path fill="none" stroke="#FFFFFF" stroke-width="3" stroke-miterlimit="10" d="M1183.5,242.753c0,2.069-1.678,3.747-3.747,3.747
		h-6.506c-2.069,0-3.747-1.678-3.747-3.747v-6.506c0-2.069,1.678-3.747,3.747-3.747h6.506c2.069,0,3.747,1.678,3.747,3.747V242.753z
		"/>
	<path fill="none" stroke="#FFFFFF" stroke-width="3" stroke-miterlimit="10" d="M1018.5,181.753c0,2.069-1.678,3.747-3.747,3.747
		h-6.506c-2.069,0-3.747-1.678-3.747-3.747v-6.506c0-2.069,1.678-3.747,3.747-3.747h6.506c2.069,0,3.747,1.678,3.747,3.747V181.753z
		"/>
	<path fill="none" stroke="#FFFFFF" stroke-width="3" stroke-miterlimit="10" d="M1172.5,137.753c0,2.069-1.678,3.747-3.747,3.747
		h-6.506c-2.069,0-3.747-1.678-3.747-3.747v-6.506c0-2.069,1.678-3.747,3.747-3.747h6.506c2.069,0,3.747,1.678,3.747,3.747V137.753z
		"/>
	<path fill="none" stroke="#FFFFFF" stroke-width="3" stroke-miterlimit="10" d="M1074.5,211.753c0,2.069-1.678,3.747-3.747,3.747
		h-6.506c-2.069,0-3.747-1.678-3.747-3.747v-6.506c0-2.069,1.678-3.747,3.747-3.747h6.506c2.069,0,3.747,1.678,3.747,3.747V211.753z
		"/>
	<path fill="none" stroke="#FFFFFF" stroke-width="3" stroke-miterlimit="10" d="M1120.5,388.753c0,2.069-1.678,3.747-3.747,3.747
		h-6.506c-2.069,0-3.747-1.678-3.747-3.747v-6.506c0-2.069,1.678-3.747,3.747-3.747h6.506c2.069,0,3.747,1.678,3.747,3.747V388.753z
		"/>
	<path fill="none" stroke="#FFFFFF" stroke-width="3" stroke-miterlimit="10" d="M765.5,200.753c0,2.069-1.678,3.747-3.747,3.747
		h-6.506c-2.069,0-3.747-1.678-3.747-3.747v-6.506c0-2.069,1.678-3.747,3.747-3.747h6.506c2.069,0,3.747,1.678,3.747,3.747V200.753z
		"/>
	<path fill="none" stroke="#FFFFFF" stroke-width="3" stroke-miterlimit="10" d="M941.5,242.753c0,2.069-1.678,3.747-3.747,3.747
		h-6.506c-2.069,0-3.747-1.678-3.747-3.747v-6.506c0-2.069,1.678-3.747,3.747-3.747h6.506c2.069,0,3.747,1.678,3.747,3.747V242.753z
		"/>
	<path fill="none" stroke="#FFFFFF" stroke-width="3" stroke-miterlimit="10" d="M1176.5,325.753c0,2.069-1.678,3.747-3.747,3.747
		h-6.506c-2.069,0-3.747-1.678-3.747-3.747v-6.506c0-2.069,1.678-3.747,3.747-3.747h6.506c2.069,0,3.747,1.678,3.747,3.747V325.753z
		"/>
	<path fill="none" stroke="#FFFFFF" stroke-width="3" stroke-miterlimit="10" d="M963.5,332.753c0,2.069-1.678,3.747-3.747,3.747
		h-6.506c-2.069,0-3.747-1.678-3.747-3.747v-6.506c0-2.069,1.678-3.747,3.747-3.747h6.506c2.069,0,3.747,1.678,3.747,3.747V332.753z
		"/>
	<path fill="none" stroke="#FFFFFF" stroke-width="3" stroke-miterlimit="10" d="M890.5,142.753c0,2.069-1.678,3.747-3.747,3.747
		h-6.506c-2.069,0-3.747-1.678-3.747-3.747v-6.506c0-2.069,1.678-3.747,3.747-3.747h6.506c2.069,0,3.747,1.678,3.747,3.747V142.753z
		"/>
	<path fill="none" stroke="#FFFFFF" stroke-width="3" stroke-miterlimit="10" d="M876.5,239.753c0,2.069-1.678,3.747-3.747,3.747
		h-6.506c-2.069,0-3.747-1.678-3.747-3.747v-6.506c0-2.069,1.678-3.747,3.747-3.747h6.506c2.069,0,3.747,1.678,3.747,3.747V239.753z
		"/>
	<path fill="none" stroke="#FFFFFF" stroke-width="3" stroke-miterlimit="10" d="M1142.5,106.753c0,2.069-1.678,3.747-3.747,3.747
		h-6.506c-2.069,0-3.747-1.678-3.747-3.747v-6.506c0-2.069,1.678-3.747,3.747-3.747h6.506c2.069,0,3.747,1.678,3.747,3.747V106.753z
		"/>
	<path fill="none" stroke="#FFFFFF" stroke-width="3" stroke-miterlimit="10" d="M1230.5,238.753c0,2.069-1.678,3.747-3.747,3.747
		h-6.506c-2.069,0-3.747-1.678-3.747-3.747v-6.506c0-2.069,1.678-3.747,3.747-3.747h6.506c2.069,0,3.747,1.678,3.747,3.747V238.753z
		"/>
	<path fill="none" stroke="#FFFFFF" stroke-width="3" stroke-miterlimit="10" d="M1010.5,245.753c0,2.069-1.678,3.747-3.747,3.747
		h-6.506c-2.069,0-3.747-1.678-3.747-3.747v-6.506c0-2.069,1.678-3.747,3.747-3.747h6.506c2.069,0,3.747,1.678,3.747,3.747V245.753z
		"/>
	<path fill="none" stroke="#FFFFFF" stroke-width="3" stroke-miterlimit="10" d="M1140.5,232.753c0,2.069-1.678,3.747-3.747,3.747
		h-6.506c-2.069,0-3.747-1.678-3.747-3.747v-6.506c0-2.069,1.678-3.747,3.747-3.747h6.506c2.069,0,3.747,1.678,3.747,3.747V232.753z
		"/>
	<path fill="none" stroke="#FFFFFF" stroke-width="3" stroke-miterlimit="10" d="M1100.5,121.753c0,2.069-1.678,3.747-3.747,3.747
		h-6.506c-2.069,0-3.747-1.678-3.747-3.747v-6.506c0-2.069,1.678-3.747,3.747-3.747h6.506c2.069,0,3.747,1.678,3.747,3.747V121.753z
		"/>
	<path fill="none" stroke="#FFFFFF" stroke-width="3" stroke-miterlimit="10" d="M1202.5,135.753c0,2.069-1.678,3.747-3.747,3.747
		h-6.506c-2.069,0-3.747-1.678-3.747-3.747v-6.506c0-2.069,1.678-3.747,3.747-3.747h6.506c2.069,0,3.747,1.678,3.747,3.747V135.753z
		"/>
	<path fill="none" stroke="#FFFFFF" stroke-width="3" stroke-miterlimit="10" d="M1047.185,673.05
		c0.007-2.069,1.688-3.742,3.759-3.735l6.506,0.019c2.068,0.007,3.741,1.689,3.735,3.759l-0.02,6.506
		c-0.006,2.069-1.688,3.742-3.758,3.735l-6.506-0.019c-2.069-0.007-3.742-1.689-3.735-3.759L1047.185,673.05z"/>
	<path fill="none" stroke="#FFFFFF" stroke-width="3" stroke-miterlimit="10" d="M903.351,616.625
		c0.007-2.07,1.689-3.742,3.759-3.736l6.506,0.02c2.069,0.006,3.742,1.688,3.735,3.758l-0.019,6.506
		c-0.007,2.069-1.689,3.742-3.759,3.736l-6.506-0.02c-2.069-0.006-3.742-1.689-3.735-3.758L903.351,616.625z"/>
	<path fill="none" stroke="#FFFFFF" stroke-width="3" stroke-miterlimit="10" d="M1007.61,528.933
		c0.007-2.069,1.689-3.742,3.759-3.736l6.506,0.02c2.069,0.006,3.742,1.688,3.735,3.758l-0.019,6.506
		c-0.007,2.069-1.689,3.742-3.759,3.736l-6.506-0.02c-2.069-0.006-3.742-1.688-3.735-3.758L1007.61,528.933z"/>
	<path fill="none" stroke="#FFFFFF" stroke-width="3" stroke-miterlimit="10" d="M921.496,567.678
		c0.006-2.069,1.688-3.742,3.758-3.735l6.506,0.019c2.069,0.007,3.742,1.689,3.736,3.759l-0.02,6.506
		c-0.006,2.069-1.689,3.741-3.758,3.735l-6.506-0.019c-2.07-0.007-3.742-1.689-3.736-3.759L921.496,567.678z"/>
	<path fill="none" stroke="#FFFFFF" stroke-width="3" stroke-miterlimit="10" d="M1086.314,629.166
		c0.006-2.07,1.689-3.742,3.758-3.736l6.506,0.02c2.07,0.006,3.742,1.688,3.736,3.758l-0.02,6.506
		c-0.006,2.069-1.688,3.742-3.758,3.736l-6.506-0.02c-2.069-0.006-3.742-1.689-3.735-3.758L1086.314,629.166z"/>
	<path fill="none" stroke="#FFFFFF" stroke-width="3" stroke-miterlimit="10" d="M932.186,672.71
		c0.006-2.069,1.688-3.742,3.758-3.736l6.506,0.02c2.069,0.006,3.742,1.688,3.736,3.758l-0.02,6.506
		c-0.006,2.069-1.688,3.742-3.758,3.736l-6.506-0.02c-2.069-0.006-3.742-1.688-3.736-3.758L932.186,672.71z"/>
	<path fill="none" stroke="#FFFFFF" stroke-width="3" stroke-miterlimit="10" d="M1030.403,599c0.007-2.069,1.688-3.742,3.759-3.736
		l6.506,0.02c2.068,0.006,3.742,1.689,3.735,3.758l-0.019,6.506c-0.007,2.069-1.689,3.742-3.759,3.736l-6.506-0.02
		c-2.069-0.006-3.742-1.688-3.735-3.758L1030.403,599z"/>
	<path fill="none" stroke="#FFFFFF" stroke-width="3" stroke-miterlimit="10" d="M984.927,421.865
		c0.007-2.069,1.689-3.742,3.759-3.736l6.506,0.02c2.069,0.006,3.742,1.688,3.735,3.758l-0.019,6.506
		c-0.007,2.069-1.689,3.742-3.759,3.736l-6.506-0.02c-2.069-0.006-3.742-1.688-3.735-3.758L984.927,421.865z"/>
	<path fill="none" stroke="#FFFFFF" stroke-width="3" stroke-miterlimit="10" d="M1163.494,568.394
		c0.007-2.069,1.689-3.742,3.759-3.736l6.506,0.02c2.069,0.006,3.742,1.688,3.735,3.758l-0.019,6.506
		c-0.007,2.069-1.688,3.742-3.759,3.736l-6.506-0.02c-2.068-0.006-3.741-1.688-3.735-3.758L1163.494,568.394z"/>
	<path fill="none" stroke="#FFFFFF" stroke-width="3" stroke-miterlimit="10" d="M928.741,484.699
		c0.006-2.069,1.688-3.742,3.758-3.736l6.506,0.02c2.069,0.006,3.742,1.688,3.736,3.758l-0.02,6.506
		c-0.006,2.069-1.688,3.742-3.758,3.736l-6.506-0.02c-2.069-0.006-3.742-1.688-3.736-3.758L928.741,484.699z"/>
	<path fill="none" stroke="#FFFFFF" stroke-width="3" stroke-miterlimit="10" d="M1141.761,478.329
		c0.006-2.069,1.688-3.742,3.759-3.736l6.505,0.02c2.069,0.006,3.742,1.688,3.736,3.758l-0.02,6.506
		c-0.006,2.069-1.688,3.742-3.758,3.736l-6.506-0.02c-2.069-0.006-3.742-1.688-3.736-3.758L1141.761,478.329z"/>
	<path fill="none" stroke="#FFFFFF" stroke-width="3" stroke-miterlimit="10" d="M1214.199,668.544
		c0.006-2.069,1.688-3.742,3.758-3.736l6.506,0.02c2.069,0.006,3.742,1.688,3.736,3.758l-0.02,6.506
		c-0.006,2.069-1.689,3.742-3.758,3.736l-6.506-0.02c-2.07-0.006-3.742-1.688-3.736-3.758L1214.199,668.544z"/>
	<path fill="none" stroke="#FFFFFF" stroke-width="3" stroke-miterlimit="10" d="M1228.485,571.586
		c0.007-2.069,1.688-3.742,3.759-3.736l6.506,0.02c2.068,0.006,3.741,1.688,3.735,3.758l-0.02,6.506
		c-0.006,2.069-1.688,3.742-3.758,3.736l-6.506-0.02c-2.069-0.006-3.742-1.688-3.735-3.758L1228.485,571.586z"/>
	<path fill="none" stroke="#FFFFFF" stroke-width="3" stroke-miterlimit="10" d="M962.094,703.799
		c0.006-2.069,1.688-3.742,3.758-3.736l6.506,0.02c2.069,0.006,3.742,1.688,3.736,3.758l-0.02,6.506
		c-0.006,2.069-1.688,3.742-3.758,3.736l-6.506-0.02c-2.069-0.006-3.742-1.688-3.736-3.758L962.094,703.799z"/>
	<path fill="none" stroke="#FFFFFF" stroke-width="3" stroke-miterlimit="10" d="M874.484,571.539
		c0.006-2.069,1.688-3.742,3.758-3.736l6.506,0.02c2.069,0.006,3.742,1.688,3.736,3.758l-0.02,6.506
		c-0.006,2.069-1.688,3.742-3.758,3.736l-6.506-0.02c-2.069-0.006-3.742-1.688-3.736-3.758L874.484,571.539z"/>
	<path fill="none" stroke="#FFFFFF" stroke-width="3" stroke-miterlimit="10" d="M1094.504,565.189
		c0.006-2.069,1.688-3.742,3.758-3.736l6.506,0.02c2.069,0.006,3.742,1.688,3.736,3.758l-0.02,6.506
		c-0.006,2.069-1.688,3.742-3.758,3.736l-6.506-0.02c-2.069-0.006-3.742-1.688-3.736-3.758L1094.504,565.189z"/>
	<path fill="none" stroke="#FFFFFF" stroke-width="3" stroke-miterlimit="10" d="M964.466,577.805
		c0.006-2.069,1.688-3.742,3.759-3.735l6.506,0.019c2.068,0.007,3.741,1.689,3.735,3.759l-0.02,6.506
		c-0.006,2.069-1.688,3.742-3.758,3.735l-6.506-0.019c-2.069-0.007-3.742-1.689-3.735-3.759L964.466,577.805z"/>
	<path fill="none" stroke="#FFFFFF" stroke-width="3" stroke-miterlimit="10" d="M1004.138,688.923
		c0.006-2.069,1.688-3.742,3.758-3.736l6.506,0.02c2.069,0.006,3.742,1.688,3.736,3.758l-0.02,6.506
		c-0.006,2.069-1.688,3.742-3.758,3.736l-6.506-0.02c-2.069-0.006-3.742-1.688-3.736-3.758L1004.138,688.923z"/>
	<path fill="none" stroke="#FFFFFF" stroke-width="3" stroke-miterlimit="10" d="M902.18,674.621
		c0.006-2.069,1.688-3.742,3.758-3.735l6.506,0.019c2.069,0.007,3.742,1.689,3.736,3.759l-0.02,6.506
		c-0.006,2.069-1.688,3.741-3.758,3.735l-6.506-0.019c-2.069-0.007-3.742-1.689-3.736-3.759L902.18,674.621z"/>
	<path fill="none" stroke="#FFFFFF" stroke-width="3" stroke-miterlimit="10" d="M563.185,349.05
		c0.007-2.069,1.688-3.742,3.759-3.735l6.506,0.019c2.068,0.007,3.741,1.689,3.735,3.759l-0.02,6.506
		c-0.006,2.069-1.688,3.742-3.758,3.735l-6.506-0.019c-2.069-0.007-3.742-1.689-3.735-3.759L563.185,349.05z"/>
	<path fill="none" stroke="#FFFFFF" stroke-width="3" stroke-miterlimit="10" d="M419.351,292.625
		c0.007-2.07,1.689-3.742,3.759-3.736l6.506,0.02c2.069,0.006,3.742,1.688,3.735,3.758l-0.019,6.506
		c-0.007,2.069-1.689,3.742-3.759,3.736l-6.506-0.02c-2.069-0.006-3.742-1.689-3.735-3.758L419.351,292.625z"/>
	<path fill="none" stroke="#FFFFFF" stroke-width="3" stroke-miterlimit="10" d="M523.61,204.933
		c0.007-2.069,1.689-3.742,3.759-3.736l6.506,0.02c2.069,0.006,3.742,1.688,3.735,3.758l-0.019,6.506
		c-0.007,2.069-1.689,3.742-3.759,3.736l-6.506-0.02c-2.069-0.006-3.742-1.688-3.735-3.758L523.61,204.933z"/>
	<path fill="none" stroke="#FFFFFF" stroke-width="3" stroke-miterlimit="10" d="M437.496,243.678
		c0.006-2.069,1.688-3.742,3.758-3.735l6.506,0.019c2.069,0.007,3.742,1.689,3.736,3.759l-0.02,6.506
		c-0.006,2.069-1.689,3.741-3.758,3.735l-6.506-0.019c-2.07-0.007-3.742-1.689-3.736-3.759L437.496,243.678z"/>
	<path fill="none" stroke="#FFFFFF" stroke-width="3" stroke-miterlimit="10" d="M602.314,305.166
		c0.006-2.07,1.689-3.742,3.758-3.736l6.506,0.02c2.07,0.006,3.742,1.688,3.736,3.758l-0.02,6.506
		c-0.006,2.069-1.688,3.742-3.758,3.736l-6.506-0.02c-2.069-0.006-3.742-1.689-3.735-3.758L602.314,305.166z"/>
	<path fill="none" stroke="#FFFFFF" stroke-width="3" stroke-miterlimit="10" d="M448.186,348.71
		c0.006-2.069,1.688-3.742,3.758-3.736l6.506,0.02c2.069,0.006,3.742,1.688,3.736,3.758l-0.02,6.506
		c-0.006,2.069-1.688,3.742-3.758,3.736l-6.506-0.02c-2.069-0.006-3.742-1.688-3.736-3.758L448.186,348.71z"/>
	<path fill="none" stroke="#FFFFFF" stroke-width="3" stroke-miterlimit="10" d="M546.403,275c0.007-2.069,1.688-3.742,3.759-3.736
		l6.506,0.02c2.068,0.006,3.742,1.689,3.735,3.758l-0.019,6.506c-0.007,2.069-1.689,3.742-3.759,3.736l-6.506-0.02
		c-2.069-0.006-3.742-1.688-3.735-3.758L546.403,275z"/>
	<path fill="none" stroke="#FFFFFF" stroke-width="3" stroke-miterlimit="10" d="M500.927,97.865
		c0.007-2.069,1.689-3.742,3.759-3.736l6.506,0.02c2.069,0.006,3.742,1.688,3.735,3.758l-0.019,6.506
		c-0.007,2.069-1.689,3.742-3.759,3.736l-6.506-0.02c-2.069-0.006-3.742-1.688-3.735-3.758L500.927,97.865z"/>
	<path fill="none" stroke="#FFFFFF" stroke-width="3" stroke-miterlimit="10" d="M855.369,286.914
		c0.007-2.069,1.689-3.742,3.759-3.736l6.506,0.02c2.069,0.006,3.742,1.688,3.735,3.758l-0.019,6.506
		c-0.007,2.069-1.688,3.742-3.759,3.736l-6.506-0.02c-2.068-0.006-3.741-1.689-3.735-3.758L855.369,286.914z"/>
	<path fill="none" stroke="#FFFFFF" stroke-width="3" stroke-miterlimit="10" d="M679.494,244.394
		c0.007-2.069,1.689-3.742,3.759-3.736l6.506,0.02c2.069,0.006,3.742,1.688,3.735,3.758l-0.019,6.506
		c-0.007,2.069-1.688,3.742-3.759,3.736l-6.506-0.02c-2.068-0.006-3.741-1.688-3.735-3.758L679.494,244.394z"/>
	<path fill="none" stroke="#FFFFFF" stroke-width="3" stroke-miterlimit="10" d="M444.741,160.699
		c0.006-2.069,1.688-3.742,3.758-3.736l6.506,0.02c2.069,0.006,3.742,1.688,3.736,3.758l-0.02,6.506
		c-0.006,2.069-1.688,3.742-3.758,3.736l-6.506-0.02c-2.069-0.006-3.742-1.688-3.736-3.758L444.741,160.699z"/>
	<path fill="none" stroke="#FFFFFF" stroke-width="3" stroke-miterlimit="10" d="M657.761,154.329
		c0.006-2.069,1.688-3.742,3.759-3.736l6.505,0.02c2.069,0.006,3.742,1.688,3.736,3.758l-0.02,6.506
		c-0.006,2.069-1.688,3.742-3.758,3.736l-6.506-0.02c-2.069-0.006-3.742-1.688-3.736-3.758L657.761,154.329z"/>
	<path fill="none" stroke="#FFFFFF" stroke-width="3" stroke-miterlimit="10" d="M730.199,344.544
		c0.006-2.069,1.688-3.742,3.758-3.736l6.506,0.02c2.069,0.006,3.742,1.688,3.736,3.758l-0.02,6.506
		c-0.006,2.069-1.689,3.742-3.758,3.736l-6.506-0.02c-2.07-0.006-3.742-1.688-3.736-3.758L730.199,344.544z"/>
	<path fill="none" stroke="#FFFFFF" stroke-width="3" stroke-miterlimit="10" d="M744.485,247.586
		c0.007-2.069,1.688-3.742,3.759-3.736l6.506,0.02c2.068,0.006,3.741,1.688,3.735,3.758l-0.02,6.506
		c-0.006,2.069-1.688,3.742-3.758,3.736l-6.506-0.02c-2.069-0.006-3.742-1.688-3.735-3.758L744.485,247.586z"/>
	<path fill="none" stroke="#FFFFFF" stroke-width="3" stroke-miterlimit="10" d="M478.094,379.799
		c0.006-2.069,1.688-3.742,3.758-3.736l6.506,0.02c2.069,0.006,3.742,1.688,3.736,3.758l-0.02,6.506
		c-0.006,2.069-1.688,3.742-3.758,3.736l-6.506-0.02c-2.069-0.006-3.742-1.688-3.736-3.758L478.094,379.799z"/>
	<path fill="none" stroke="#FFFFFF" stroke-width="3" stroke-miterlimit="10" d="M390.484,247.539
		c0.006-2.069,1.688-3.742,3.758-3.736l6.506,0.02c2.069,0.006,3.742,1.688,3.736,3.758l-0.02,6.506
		c-0.006,2.069-1.688,3.742-3.758,3.736l-6.506-0.02c-2.069-0.006-3.742-1.688-3.736-3.758L390.484,247.539z"/>
	<path fill="none" stroke="#FFFFFF" stroke-width="3" stroke-miterlimit="10" d="M610.504,241.189
		c0.006-2.069,1.688-3.742,3.758-3.736l6.506,0.02c2.069,0.006,3.742,1.688,3.736,3.758l-0.02,6.506
		c-0.006,2.069-1.688,3.742-3.758,3.736l-6.506-0.02c-2.069-0.006-3.742-1.688-3.736-3.758L610.504,241.189z"/>
	<path fill="none" stroke="#FFFFFF" stroke-width="3" stroke-miterlimit="10" d="M480.466,253.805
		c0.006-2.069,1.688-3.742,3.759-3.735l6.506,0.019c2.068,0.007,3.741,1.689,3.735,3.759l-0.02,6.506
		c-0.006,2.069-1.688,3.742-3.758,3.735l-6.506-0.019c-2.069-0.007-3.742-1.689-3.735-3.759L480.466,253.805z"/>
	<path fill="none" stroke="#FFFFFF" stroke-width="3" stroke-miterlimit="10" d="M520.138,364.923
		c0.006-2.069,1.688-3.742,3.758-3.736l6.506,0.02c2.069,0.006,3.742,1.688,3.736,3.758l-0.02,6.506
		c-0.006,2.069-1.688,3.742-3.758,3.736l-6.506-0.02c-2.069-0.006-3.742-1.688-3.736-3.758L520.138,364.923z"/>
	<path fill="none" stroke="#FFFFFF" stroke-width="3" stroke-miterlimit="10" d="M418.18,350.621
		c0.006-2.069,1.688-3.742,3.758-3.735l6.506,0.019c2.069,0.007,3.742,1.689,3.736,3.759l-0.02,6.506
		c-0.006,2.069-1.688,3.741-3.758,3.735l-6.506-0.019c-2.069-0.007-3.742-1.689-3.736-3.759L418.18,350.621z"/>
	<path fill="none" stroke="#FFFFFF" stroke-width="3" stroke-miterlimit="10" d="M254.185,729.05
		c0.007-2.069,1.688-3.742,3.759-3.735l6.506,0.019c2.068,0.007,3.741,1.689,3.735,3.759l-0.02,6.506
		c-0.006,2.069-1.688,3.742-3.758,3.735l-6.506-0.019c-2.069-0.007-3.742-1.689-3.735-3.759L254.185,729.05z"/>
	<path fill="none" stroke="#FFFFFF" stroke-width="3" stroke-miterlimit="10" d="M110.351,672.625
		c0.007-2.07,1.689-3.742,3.759-3.736l6.506,0.02c2.069,0.006,3.742,1.688,3.735,3.758l-0.019,6.506
		c-0.007,2.069-1.689,3.742-3.759,3.736l-6.506-0.02c-2.069-0.006-3.742-1.689-3.735-3.758L110.351,672.625z"/>
	<path fill="none" stroke="#FFFFFF" stroke-width="3" stroke-miterlimit="10" d="M214.61,584.933
		c0.007-2.069,1.689-3.742,3.759-3.736l6.506,0.02c2.069,0.006,3.742,1.688,3.735,3.758l-0.019,6.506
		c-0.007,2.069-1.689,3.742-3.759,3.736l-6.506-0.02c-2.069-0.006-3.742-1.688-3.735-3.758L214.61,584.933z"/>
	<path fill="none" stroke="#FFFFFF" stroke-width="3" stroke-miterlimit="10" d="M128.496,623.678
		c0.006-2.069,1.688-3.742,3.758-3.735l6.506,0.019c2.069,0.007,3.742,1.689,3.736,3.759l-0.02,6.506
		c-0.006,2.069-1.689,3.741-3.758,3.735l-6.506-0.019c-2.07-0.007-3.742-1.689-3.736-3.759L128.496,623.678z"/>
	<path fill="none" stroke="#FFFFFF" stroke-width="3" stroke-miterlimit="10" d="M293.314,685.166
		c0.006-2.07,1.689-3.742,3.758-3.736l6.506,0.02c2.07,0.006,3.742,1.688,3.736,3.758l-0.02,6.506
		c-0.006,2.069-1.688,3.742-3.758,3.736l-6.506-0.02c-2.069-0.006-3.742-1.689-3.735-3.758L293.314,685.166z"/>
	<path fill="none" stroke="#FFFFFF" stroke-width="3" stroke-miterlimit="10" d="M139.186,728.71
		c0.006-2.069,1.688-3.742,3.758-3.736l6.506,0.02c2.069,0.006,3.742,1.688,3.736,3.758l-0.02,6.506
		c-0.006,2.069-1.688,3.742-3.758,3.736l-6.506-0.02c-2.069-0.006-3.742-1.688-3.736-3.758L139.186,728.71z"/>
	<path fill="none" stroke="#FFFFFF" stroke-width="3" stroke-miterlimit="10" d="M237.403,655c0.007-2.069,1.688-3.742,3.759-3.736
		l6.506,0.02c2.068,0.006,3.742,1.689,3.735,3.758l-0.019,6.506c-0.007,2.069-1.689,3.742-3.759,3.736l-6.506-0.02
		c-2.069-0.006-3.742-1.688-3.735-3.758L237.403,655z"/>
	<path fill="none" stroke="#FFFFFF" stroke-width="3" stroke-miterlimit="10" d="M191.927,477.865
		c0.007-2.069,1.689-3.742,3.759-3.736l6.506,0.02c2.069,0.006,3.742,1.688,3.735,3.758l-0.019,6.506
		c-0.007,2.069-1.689,3.742-3.759,3.736l-6.506-0.02c-2.069-0.006-3.742-1.688-3.735-3.758L191.927,477.865z"/>
	<path fill="none" stroke="#FFFFFF" stroke-width="3" stroke-miterlimit="10" d="M546.369,666.914
		c0.007-2.069,1.689-3.742,3.759-3.736l6.506,0.02c2.069,0.006,3.742,1.688,3.735,3.758l-0.019,6.506
		c-0.007,2.069-1.688,3.742-3.759,3.736l-6.506-0.02c-2.068-0.006-3.741-1.689-3.735-3.758L546.369,666.914z"/>
	<path fill="none" stroke="#FFFFFF" stroke-width="3" stroke-miterlimit="10" d="M370.494,624.394
		c0.007-2.069,1.689-3.742,3.759-3.736l6.506,0.02c2.069,0.006,3.742,1.688,3.735,3.758l-0.019,6.506
		c-0.007,2.069-1.688,3.742-3.759,3.736l-6.506-0.02c-2.068-0.006-3.741-1.688-3.735-3.758L370.494,624.394z"/>
	<path fill="none" stroke="#FFFFFF" stroke-width="3" stroke-miterlimit="10" d="M135.741,540.699
		c0.006-2.069,1.688-3.742,3.758-3.736l6.506,0.02c2.069,0.006,3.742,1.688,3.736,3.758l-0.02,6.506
		c-0.006,2.069-1.688,3.742-3.758,3.736l-6.506-0.02c-2.069-0.006-3.742-1.688-3.736-3.758L135.741,540.699z"/>
	<path fill="none" stroke="#FFFFFF" stroke-width="3" stroke-miterlimit="10" d="M348.761,534.329
		c0.006-2.069,1.688-3.742,3.759-3.736l6.505,0.02c2.069,0.006,3.742,1.688,3.736,3.758l-0.02,6.506
		c-0.006,2.069-1.688,3.742-3.758,3.736l-6.506-0.02c-2.069-0.006-3.742-1.688-3.736-3.758L348.761,534.329z"/>
	<path fill="none" stroke="#FFFFFF" stroke-width="3" stroke-miterlimit="10" d="M421.199,724.544
		c0.006-2.069,1.688-3.742,3.758-3.736l6.506,0.02c2.069,0.006,3.742,1.688,3.736,3.758l-0.02,6.506
		c-0.006,2.069-1.689,3.742-3.758,3.736l-6.506-0.02c-2.07-0.006-3.742-1.688-3.736-3.758L421.199,724.544z"/>
	<path fill="none" stroke="#FFFFFF" stroke-width="3" stroke-miterlimit="10" d="M435.485,627.586
		c0.007-2.069,1.688-3.742,3.759-3.736l6.506,0.02c2.068,0.006,3.741,1.688,3.735,3.758l-0.02,6.506
		c-0.006,2.069-1.688,3.742-3.758,3.736l-6.506-0.02c-2.069-0.006-3.742-1.688-3.735-3.758L435.485,627.586z"/>
	<path fill="none" stroke="#FFFFFF" stroke-width="3" stroke-miterlimit="10" d="M81.484,627.539
		c0.006-2.069,1.688-3.742,3.758-3.736l6.506,0.02c2.069,0.006,3.742,1.688,3.736,3.758l-0.02,6.506
		c-0.006,2.069-1.688,3.742-3.758,3.736l-6.506-0.02c-2.069-0.006-3.742-1.688-3.736-3.758L81.484,627.539z"/>
	<path fill="none" stroke="#FFFFFF" stroke-width="3" stroke-miterlimit="10" d="M301.504,621.189
		c0.006-2.069,1.688-3.742,3.758-3.736l6.506,0.02c2.069,0.006,3.742,1.688,3.736,3.758l-0.02,6.506
		c-0.006,2.069-1.688,3.742-3.758,3.736l-6.506-0.02c-2.069-0.006-3.742-1.688-3.736-3.758L301.504,621.189z"/>
	<path fill="none" stroke="#FFFFFF" stroke-width="3" stroke-miterlimit="10" d="M171.466,633.805
		c0.006-2.069,1.688-3.742,3.759-3.735l6.506,0.019c2.068,0.007,3.741,1.689,3.735,3.759l-0.02,6.506
		c-0.006,2.069-1.688,3.742-3.758,3.735l-6.506-0.019c-2.069-0.007-3.742-1.689-3.735-3.759L171.466,633.805z"/>
	<path fill="none" stroke="#FFFFFF" stroke-width="3" stroke-miterlimit="10" d="M211.138,744.923
		c0.006-2.069,1.688-3.742,3.758-3.736l6.506,0.02c2.069,0.006,3.742,1.688,3.736,3.758l-0.02,6.506
		c-0.006,2.069-1.688,3.742-3.758,3.736l-6.506-0.02c-2.069-0.006-3.742-1.688-3.736-3.758L211.138,744.923z"/>
	<path fill="none" stroke="#FFFFFF" stroke-width="3" stroke-miterlimit="10" d="M109.18,730.621
		c0.006-2.069,1.688-3.742,3.758-3.735l6.506,0.019c2.069,0.007,3.742,1.689,3.736,3.759l-0.02,6.506
		c-0.006,2.069-1.688,3.741-3.758,3.735l-6.506-0.019c-2.069-0.007-3.742-1.689-3.736-3.759L109.18,730.621z"/>
	<path fill="none" stroke="#FFFFFF" stroke-width="3" stroke-miterlimit="10" d="M155.344,101.284
		c-0.018,2.069-1.707,3.733-3.777,3.716l-6.506-0.051c-2.068-0.017-3.732-1.708-3.717-3.777l0.052-6.506
		c0.017-2.068,1.707-3.733,3.776-3.716l6.506,0.051c2.069,0.017,3.733,1.708,3.717,3.777L155.344,101.284z"/>
	<path fill="none" stroke="#FFFFFF" stroke-width="3" stroke-miterlimit="10" d="M298.896,158.422
		c-0.018,2.07-1.708,3.734-3.777,3.718l-6.506-0.052c-2.069-0.016-3.733-1.707-3.717-3.776l0.051-6.506
		c0.018-2.069,1.708-3.733,3.777-3.717l6.506,0.052c2.069,0.016,3.733,1.708,3.717,3.776L298.896,158.422z"/>
	<path fill="none" stroke="#FFFFFF" stroke-width="3" stroke-miterlimit="10" d="M194.201,245.596
		c-0.018,2.069-1.708,3.733-3.777,3.718l-6.506-0.052c-2.069-0.017-3.733-1.707-3.717-3.776l0.051-6.506
		c0.018-2.069,1.709-3.733,3.777-3.718l6.506,0.052c2.069,0.017,3.734,1.707,3.717,3.776L194.201,245.596z"/>
	<path fill="none" stroke="#FFFFFF" stroke-width="3" stroke-miterlimit="10" d="M280.507,207.279
		c-0.017,2.068-1.707,3.733-3.776,3.716l-6.506-0.051c-2.069-0.017-3.733-1.708-3.717-3.777l0.051-6.506
		c0.017-2.069,1.709-3.732,3.777-3.716l6.505,0.051c2.07,0.017,3.734,1.708,3.718,3.777L280.507,207.279z"/>
	<path fill="none" stroke="#FFFFFF" stroke-width="3" stroke-miterlimit="10" d="M115.996,144.973
		c-0.017,2.07-1.708,3.733-3.776,3.718l-6.506-0.052c-2.07-0.017-3.733-1.707-3.718-3.776l0.052-6.506
		c0.017-2.069,1.707-3.733,3.776-3.718l6.506,0.052c2.069,0.017,3.734,1.708,3.717,3.776L115.996,144.973z"/>
	<path fill="none" stroke="#FFFFFF" stroke-width="3" stroke-miterlimit="10" d="M270.34,102.194
		c-0.017,2.069-1.707,3.734-3.777,3.718l-6.505-0.052c-2.069-0.016-3.734-1.707-3.718-3.776l0.052-6.506
		c0.016-2.068,1.707-3.733,3.776-3.717l6.506,0.052c2.069,0.016,3.733,1.707,3.717,3.776L270.34,102.194z"/>
	<path fill="none" stroke="#FFFFFF" stroke-width="3" stroke-miterlimit="10" d="M171.757,175.416
		c-0.018,2.069-1.707,3.733-3.777,3.718l-6.506-0.052c-2.068-0.017-3.733-1.708-3.717-3.776l0.051-6.506
		c0.018-2.069,1.708-3.733,3.777-3.718l6.506,0.052c2.069,0.017,3.733,1.707,3.717,3.776L171.757,175.416z"/>
	<path fill="none" stroke="#FFFFFF" stroke-width="3" stroke-miterlimit="10" d="M216.353,352.774
		c-0.017,2.069-1.708,3.733-3.777,3.718l-6.505-0.052c-2.07-0.017-3.734-1.707-3.717-3.776l0.051-6.506
		c0.017-2.069,1.708-3.733,3.777-3.718l6.506,0.052c2.068,0.017,3.733,1.707,3.716,3.776L216.353,352.774z"/>
	<path fill="none" stroke="#FFFFFF" stroke-width="3" stroke-miterlimit="10" d="M38.516,205.361
		c-0.018,2.069-1.708,3.733-3.777,3.717l-6.506-0.052c-2.069-0.016-3.733-1.707-3.717-3.776l0.051-6.505
		c0.018-2.069,1.707-3.734,3.777-3.718l6.506,0.052c2.068,0.016,3.732,1.707,3.717,3.776L38.516,205.361z"/>
	<path fill="none" stroke="#FFFFFF" stroke-width="3" stroke-miterlimit="10" d="M272.85,290.221
		c-0.016,2.068-1.707,3.733-3.776,3.717l-6.506-0.052c-2.069-0.016-3.733-1.707-3.718-3.776l0.053-6.505
		c0.016-2.069,1.707-3.734,3.775-3.718l6.506,0.052c2.069,0.016,3.734,1.707,3.718,3.776L272.85,290.221z"/>
	<path fill="none" stroke="#FFFFFF" stroke-width="3" stroke-miterlimit="10" d="M59.801,295.532
		c-0.016,2.069-1.707,3.733-3.777,3.718l-6.504-0.052c-2.069-0.017-3.734-1.707-3.718-3.776l0.052-6.506
		c0.016-2.069,1.707-3.733,3.776-3.718l6.506,0.052c2.069,0.017,3.733,1.707,3.718,3.776L59.801,295.532z"/>
	<path fill="none" stroke="#FFFFFF" stroke-width="3" stroke-miterlimit="10" d="M240.586,70.958
		c-0.016,2.069-1.707,3.733-3.776,3.718l-6.506-0.053c-2.069-0.016-3.733-1.707-3.718-3.775l0.053-6.506
		c0.016-2.069,1.706-3.734,3.775-3.718l6.506,0.052c2.069,0.016,3.734,1.707,3.718,3.776L240.586,70.958z"/>
	<path fill="none" stroke="#FFFFFF" stroke-width="3" stroke-miterlimit="10" d="M327.537,203.651
		c-0.016,2.069-1.707,3.733-3.776,3.718l-6.506-0.053c-2.069-0.016-3.733-1.707-3.718-3.776l0.053-6.505
		c0.016-2.069,1.707-3.734,3.775-3.718l6.506,0.052c2.069,0.016,3.734,1.707,3.718,3.776L327.537,203.651z"/>
	<path fill="none" stroke="#FFFFFF" stroke-width="3" stroke-miterlimit="10" d="M107.488,208.908
		c-0.016,2.068-1.706,3.733-3.775,3.717l-6.506-0.052c-2.069-0.016-3.734-1.707-3.718-3.776l0.052-6.506
		c0.016-2.068,1.707-3.733,3.776-3.717l6.506,0.052c2.069,0.016,3.733,1.707,3.718,3.776L107.488,208.908z"/>
	<path fill="none" stroke="#FFFFFF" stroke-width="3" stroke-miterlimit="10" d="M237.588,196.938
		c-0.016,2.069-1.707,3.733-3.777,3.717l-6.506-0.051c-2.068-0.018-3.732-1.708-3.717-3.777l0.053-6.506
		c0.016-2.069,1.707-3.733,3.775-3.717l6.506,0.051c2.069,0.018,3.734,1.708,3.717,3.777L237.588,196.938z"/>
	<path fill="none" stroke="#FFFFFF" stroke-width="3" stroke-miterlimit="10" d="M198.469,85.625
		c-0.017,2.069-1.707,3.733-3.776,3.717l-6.506-0.052c-2.069-0.016-3.733-1.707-3.718-3.776l0.052-6.505
		c0.017-2.069,1.707-3.734,3.776-3.718l6.506,0.052c2.069,0.016,3.733,1.707,3.718,3.776L198.469,85.625z"/>
	<path fill="none" stroke="#FFFFFF" stroke-width="3" stroke-miterlimit="10" d="M300.354,100.433
		c-0.017,2.069-1.707,3.733-3.776,3.717l-6.506-0.051c-2.069-0.018-3.733-1.708-3.718-3.777l0.052-6.506
		c0.017-2.069,1.707-3.732,3.776-3.717l6.506,0.051c2.069,0.018,3.733,1.708,3.718,3.777L300.354,100.433z"/>
	<path fill="none" stroke="#FFFFFF" stroke-width="3" stroke-miterlimit="10" d="M184.185,499.05
		c0.007-2.069,1.688-3.742,3.759-3.735l6.506,0.019c2.068,0.007,3.741,1.689,3.735,3.759l-0.02,6.506
		c-0.006,2.069-1.688,3.742-3.758,3.735l-6.506-0.019c-2.069-0.007-3.742-1.689-3.735-3.759L184.185,499.05z"/>
	<path fill="none" stroke="#FFFFFF" stroke-width="3" stroke-miterlimit="10" d="M40.351,442.625
		c0.007-2.07,1.689-3.742,3.759-3.736l6.506,0.02c2.069,0.006,3.742,1.688,3.735,3.758l-0.019,6.506
		c-0.007,2.069-1.689,3.742-3.759,3.736l-6.506-0.02c-2.069-0.006-3.742-1.689-3.735-3.758L40.351,442.625z"/>
	<path fill="none" stroke="#FFFFFF" stroke-width="3" stroke-miterlimit="10" d="M144.61,354.933
		c0.007-2.069,1.689-3.742,3.759-3.736l6.506,0.02c2.069,0.006,3.742,1.688,3.735,3.758l-0.019,6.506
		c-0.007,2.069-1.689,3.742-3.759,3.736l-6.506-0.02c-2.069-0.006-3.742-1.688-3.735-3.758L144.61,354.933z"/>
	<path fill="none" stroke="#FFFFFF" stroke-width="3" stroke-miterlimit="10" d="M58.496,393.678
		c0.006-2.069,1.688-3.742,3.758-3.735l6.506,0.019c2.069,0.007,3.742,1.689,3.736,3.759l-0.02,6.506
		c-0.006,2.069-1.689,3.741-3.758,3.735l-6.506-0.019c-2.07-0.007-3.742-1.689-3.736-3.759L58.496,393.678z"/>
	<path fill="none" stroke="#FFFFFF" stroke-width="3" stroke-miterlimit="10" d="M223.314,455.166
		c0.006-2.07,1.689-3.742,3.758-3.736l6.506,0.02c2.07,0.006,3.742,1.688,3.736,3.758l-0.02,6.506
		c-0.006,2.069-1.688,3.742-3.758,3.736l-6.506-0.02c-2.069-0.006-3.742-1.689-3.735-3.758L223.314,455.166z"/>
	<path fill="none" stroke="#FFFFFF" stroke-width="3" stroke-miterlimit="10" d="M69.186,498.71
		c0.006-2.069,1.688-3.742,3.758-3.736l6.506,0.02c2.069,0.006,3.742,1.688,3.736,3.758l-0.02,6.506
		c-0.006,2.069-1.688,3.742-3.758,3.736l-6.506-0.02c-2.069-0.006-3.742-1.688-3.736-3.758L69.186,498.71z"/>
	<path fill="none" stroke="#FFFFFF" stroke-width="3" stroke-miterlimit="10" d="M167.403,425c0.007-2.069,1.688-3.742,3.759-3.736
		l6.506,0.02c2.068,0.006,3.742,1.689,3.735,3.758l-0.019,6.506c-0.007,2.069-1.689,3.742-3.759,3.736l-6.506-0.02
		c-2.069-0.006-3.742-1.688-3.735-3.758L167.403,425z"/>
	<path fill="none" stroke="#FFFFFF" stroke-width="3" stroke-miterlimit="10" d="M121.927,247.865
		c0.007-2.069,1.689-3.742,3.759-3.736l6.506,0.02c2.069,0.006,3.742,1.688,3.735,3.758l-0.019,6.506
		c-0.007,2.069-1.689,3.742-3.759,3.736l-6.506-0.02c-2.069-0.006-3.742-1.688-3.735-3.758L121.927,247.865z"/>
	<path fill="none" stroke="#FFFFFF" stroke-width="3" stroke-miterlimit="10" d="M476.369,436.914
		c0.007-2.069,1.689-3.742,3.759-3.736l6.506,0.02c2.069,0.006,3.742,1.688,3.735,3.758l-0.019,6.506
		c-0.007,2.069-1.688,3.742-3.759,3.736l-6.506-0.02c-2.068-0.006-3.741-1.689-3.735-3.758L476.369,436.914z"/>
	<path fill="none" stroke="#FFFFFF" stroke-width="3" stroke-miterlimit="10" d="M300.494,394.394
		c0.007-2.069,1.689-3.742,3.759-3.736l6.506,0.02c2.069,0.006,3.742,1.688,3.735,3.758l-0.019,6.506
		c-0.007,2.069-1.688,3.742-3.759,3.736l-6.506-0.02c-2.068-0.006-3.741-1.688-3.735-3.758L300.494,394.394z"/>
	<path fill="none" stroke="#FFFFFF" stroke-width="3" stroke-miterlimit="10" d="M65.741,310.699
		c0.006-2.069,1.688-3.742,3.758-3.736l6.506,0.02c2.069,0.006,3.742,1.688,3.736,3.758l-0.02,6.506
		c-0.006,2.069-1.688,3.742-3.758,3.736l-6.506-0.02c-2.069-0.006-3.742-1.688-3.736-3.758L65.741,310.699z"/>
	<path fill="none" stroke="#FFFFFF" stroke-width="3" stroke-miterlimit="10" d="M278.761,304.329
		c0.006-2.069,1.688-3.742,3.759-3.736l6.505,0.02c2.069,0.006,3.742,1.688,3.736,3.758l-0.02,6.506
		c-0.006,2.069-1.688,3.742-3.758,3.736l-6.506-0.02c-2.069-0.006-3.742-1.688-3.736-3.758L278.761,304.329z"/>
	<path fill="none" stroke="#FFFFFF" stroke-width="3" stroke-miterlimit="10" d="M351.199,494.544
		c0.006-2.069,1.688-3.742,3.758-3.736l6.506,0.02c2.069,0.006,3.742,1.688,3.736,3.758l-0.02,6.506
		c-0.006,2.069-1.689,3.742-3.758,3.736l-6.506-0.02c-2.07-0.006-3.742-1.688-3.736-3.758L351.199,494.544z"/>
	<path fill="none" stroke="#FFFFFF" stroke-width="3" stroke-miterlimit="10" d="M365.485,397.586
		c0.007-2.069,1.688-3.742,3.759-3.736l6.506,0.02c2.068,0.006,3.741,1.688,3.735,3.758l-0.02,6.506
		c-0.006,2.069-1.688,3.742-3.758,3.736l-6.506-0.02c-2.069-0.006-3.742-1.688-3.735-3.758L365.485,397.586z"/>
	<path fill="none" stroke="#FFFFFF" stroke-width="3" stroke-miterlimit="10" d="M99.094,529.799
		c0.006-2.069,1.688-3.742,3.758-3.736l6.506,0.02c2.069,0.006,3.742,1.688,3.736,3.758l-0.02,6.506
		c-0.006,2.069-1.688,3.742-3.758,3.736l-6.506-0.02c-2.069-0.006-3.742-1.688-3.736-3.758L99.094,529.799z"/>
	<path fill="none" stroke="#FFFFFF" stroke-width="3" stroke-miterlimit="10" d="M11.484,397.539
		c0.006-2.069,1.688-3.742,3.758-3.736l6.506,0.02c2.069,0.006,3.742,1.688,3.736,3.758l-0.02,6.506
		c-0.006,2.069-1.688,3.742-3.758,3.736l-6.506-0.02c-2.069-0.006-3.742-1.688-3.736-3.758L11.484,397.539z"/>
	<path fill="none" stroke="#FFFFFF" stroke-width="3" stroke-miterlimit="10" d="M231.504,391.189
		c0.006-2.069,1.688-3.742,3.758-3.736l6.506,0.02c2.069,0.006,3.742,1.688,3.736,3.758l-0.02,6.506
		c-0.006,2.069-1.688,3.742-3.758,3.736l-6.506-0.02c-2.069-0.006-3.742-1.688-3.736-3.758L231.504,391.189z"/>
	<path fill="none" stroke="#FFFFFF" stroke-width="3" stroke-miterlimit="10" d="M101.466,403.805
		c0.006-2.069,1.688-3.742,3.759-3.735l6.506,0.019c2.068,0.007,3.741,1.689,3.735,3.759l-0.02,6.506
		c-0.006,2.069-1.688,3.742-3.758,3.735l-6.506-0.019c-2.069-0.007-3.742-1.689-3.735-3.759L101.466,403.805z"/>
	<path fill="none" stroke="#FFFFFF" stroke-width="3" stroke-miterlimit="10" d="M141.138,514.923
		c0.006-2.069,1.688-3.742,3.758-3.736l6.506,0.02c2.069,0.006,3.742,1.688,3.736,3.758l-0.02,6.506
		c-0.006,2.069-1.688,3.742-3.758,3.736l-6.506-0.02c-2.069-0.006-3.742-1.688-3.736-3.758L141.138,514.923z"/>
	<path fill="none" stroke="#FFFFFF" stroke-width="3" stroke-miterlimit="10" d="M39.18,500.621
		c0.006-2.069,1.688-3.742,3.758-3.735l6.506,0.019c2.069,0.007,3.742,1.689,3.736,3.759l-0.02,6.506
		c-0.006,2.069-1.688,3.741-3.758,3.735l-6.506-0.019c-2.069-0.007-3.742-1.689-3.736-3.759L39.18,500.621z"/>
	<path fill="none" stroke="#FFFFFF" stroke-width="3" stroke-miterlimit="10" d="M760.5,139.753c0,2.069-1.678,3.747-3.747,3.747
		h-6.506c-2.069,0-3.747-1.678-3.747-3.747v-6.506c0-2.069,1.678-3.747,3.747-3.747h6.506c2.069,0,3.747,1.678,3.747,3.747V139.753z
		"/>
	<path fill="none" stroke="#FFFFFF" stroke-width="3" stroke-miterlimit="10" d="M886.5,244.753c0,2.069-1.678,3.747-3.747,3.747
		h-6.506c-2.069,0-3.747-1.678-3.747-3.747v-6.506c0-2.069,1.678-3.747,3.747-3.747h6.506c2.069,0,3.747,1.678,3.747,3.747V244.753z
		"/>
	<path fill="none" stroke="#FFFFFF" stroke-width="3" stroke-miterlimit="10" d="M721.5,183.753c0,2.069-1.678,3.747-3.747,3.747
		h-6.506c-2.069,0-3.747-1.678-3.747-3.747v-6.506c0-2.069,1.678-3.747,3.747-3.747h6.506c2.069,0,3.747,1.678,3.747,3.747V183.753z
		"/>
	<path fill="none" stroke="#FFFFFF" stroke-width="3" stroke-miterlimit="10" d="M875.5,139.753c0,2.069-1.678,3.747-3.747,3.747
		h-6.506c-2.069,0-3.747-1.678-3.747-3.747v-6.506c0-2.069,1.678-3.747,3.747-3.747h6.506c2.069,0,3.747,1.678,3.747,3.747V139.753z
		"/>
	<path fill="none" stroke="#FFFFFF" stroke-width="3" stroke-miterlimit="10" d="M777.5,213.753c0,2.069-1.678,3.747-3.747,3.747
		h-6.506c-2.069,0-3.747-1.678-3.747-3.747v-6.506c0-2.069,1.678-3.747,3.747-3.747h6.506c2.069,0,3.747,1.678,3.747,3.747V213.753z
		"/>
	<path fill="none" stroke="#FFFFFF" stroke-width="3" stroke-miterlimit="10" d="M644.5,244.753c0,2.069-1.678,3.747-3.747,3.747
		h-6.506c-2.069,0-3.747-1.678-3.747-3.747v-6.506c0-2.069,1.678-3.747,3.747-3.747h6.506c2.069,0,3.747,1.678,3.747,3.747V244.753z
		"/>
	<path fill="none" stroke="#FFFFFF" stroke-width="3" stroke-miterlimit="10" d="M593.5,144.753c0,2.069-1.678,3.747-3.747,3.747
		h-6.506c-2.069,0-3.747-1.678-3.747-3.747v-6.506c0-2.069,1.678-3.747,3.747-3.747h6.506c2.069,0,3.747,1.678,3.747,3.747V144.753z
		"/>
	<path fill="none" stroke="#FFFFFF" stroke-width="3" stroke-miterlimit="10" d="M579.5,241.753c0,2.069-1.678,3.747-3.747,3.747
		h-6.506c-2.069,0-3.747-1.678-3.747-3.747v-6.506c0-2.069,1.678-3.747,3.747-3.747h6.506c2.069,0,3.747,1.678,3.747,3.747V241.753z
		"/>
	<path fill="none" stroke="#FFFFFF" stroke-width="3" stroke-miterlimit="10" d="M845.5,108.753c0,2.069-1.678,3.747-3.747,3.747
		h-6.506c-2.069,0-3.747-1.678-3.747-3.747v-6.506c0-2.069,1.678-3.747,3.747-3.747h6.506c2.069,0,3.747,1.678,3.747,3.747V108.753z
		"/>
	<path fill="none" stroke="#FFFFFF" stroke-width="3" stroke-miterlimit="10" d="M713.5,247.753c0,2.069-1.678,3.747-3.747,3.747
		h-6.506c-2.069,0-3.747-1.678-3.747-3.747v-6.506c0-2.069,1.678-3.747,3.747-3.747h6.506c2.069,0,3.747,1.678,3.747,3.747V247.753z
		"/>
	<path fill="none" stroke="#FFFFFF" stroke-width="3" stroke-miterlimit="10" d="M843.5,234.753c0,2.069-1.678,3.747-3.747,3.747
		h-6.506c-2.069,0-3.747-1.678-3.747-3.747v-6.506c0-2.069,1.678-3.747,3.747-3.747h6.506c2.069,0,3.747,1.678,3.747,3.747V234.753z
		"/>
	<path fill="none" stroke="#FFFFFF" stroke-width="3" stroke-miterlimit="10" d="M803.5,123.753c0,2.069-1.678,3.747-3.747,3.747
		h-6.506c-2.069,0-3.747-1.678-3.747-3.747v-6.506c0-2.069,1.678-3.747,3.747-3.747h6.506c2.069,0,3.747,1.678,3.747,3.747V123.753z
		"/>
	<path fill="none" stroke="#FFFFFF" stroke-width="3" stroke-miterlimit="10" d="M555.094,67.799
		c0.006-2.069,1.688-3.742,3.758-3.736l6.506,0.02c2.069,0.006,3.742,1.688,3.736,3.758l-0.02,6.506
		c-0.006,2.069-1.688,3.742-3.758,3.736l-6.506-0.02c-2.069-0.006-3.742-1.688-3.736-3.758L555.094,67.799z"/>
	<path fill="none" stroke="#FFFFFF" stroke-width="3" stroke-miterlimit="10" d="M597.138,52.923
		c0.006-2.069,1.688-3.742,3.758-3.736l6.506,0.02c2.069,0.006,3.742,1.688,3.736,3.758l-0.02,6.506
		c-0.006,2.069-1.688,3.742-3.758,3.736l-6.506-0.02c-2.069-0.006-3.742-1.688-3.736-3.758L597.138,52.923z"/>
	<path fill="none" stroke="#FFFFFF" stroke-width="3" stroke-miterlimit="10" d="M553.369,124.914
		c0.007-2.069,1.689-3.742,3.759-3.736l6.506,0.02c2.069,0.006,3.742,1.688,3.735,3.758l-0.019,6.506
		c-0.007,2.069-1.688,3.742-3.759,3.736l-6.506-0.02c-2.068-0.006-3.741-1.689-3.735-3.758L553.369,124.914z"/>
	<path fill="none" stroke="#FFFFFF" stroke-width="3" stroke-miterlimit="10" d="M622.5,627.753c0,2.069-1.678,3.747-3.747,3.747
		h-6.506c-2.069,0-3.747-1.678-3.747-3.747v-6.506c0-2.069,1.678-3.747,3.747-3.747h6.506c2.069,0,3.747,1.678,3.747,3.747V627.753z
		"/>
	<path fill="none" stroke="#FFFFFF" stroke-width="3" stroke-miterlimit="10" d="M644.5,717.753c0,2.069-1.678,3.747-3.747,3.747
		h-6.506c-2.069,0-3.747-1.678-3.747-3.747v-6.506c0-2.069,1.678-3.747,3.747-3.747h6.506c2.069,0,3.747,1.678,3.747,3.747V717.753z
		"/>
	<path fill="none" stroke="#FFFFFF" stroke-width="3" stroke-miterlimit="10" d="M557.5,624.753c0,2.069-1.678,3.747-3.747,3.747
		h-6.506c-2.069,0-3.747-1.678-3.747-3.747v-6.506c0-2.069,1.678-3.747,3.747-3.747h6.506c2.069,0,3.747,1.678,3.747,3.747V624.753z
		"/>
	<path fill="none" stroke="#FFFFFF" stroke-width="3" stroke-miterlimit="10" d="M691.5,630.753c0,2.069-1.678,3.747-3.747,3.747
		h-6.506c-2.069,0-3.747-1.678-3.747-3.747v-6.506c0-2.069,1.678-3.747,3.747-3.747h6.506c2.069,0,3.747,1.678,3.747,3.747V630.753z
		"/>
	<path fill="none" stroke="#FFFFFF" stroke-width="3" stroke-miterlimit="10" d="M601.369,737.914
		c0.007-2.069,1.689-3.742,3.759-3.736l6.506,0.02c2.069,0.006,3.742,1.688,3.735,3.758l-0.019,6.506
		c-0.007,2.069-1.688,3.742-3.759,3.736l-6.506-0.02c-2.068-0.006-3.741-1.689-3.735-3.758L601.369,737.914z"/>
	<path fill="none" stroke="#FFFFFF" stroke-width="3" stroke-miterlimit="10" d="M1028.5,418.753c0,2.069-1.678,3.747-3.747,3.747
		h-6.506c-2.069,0-3.747-1.678-3.747-3.747v-6.506c0-2.069,1.678-3.747,3.747-3.747h6.506c2.069,0,3.747,1.678,3.747,3.747V418.753z
		"/>
	<path fill="none" stroke="#FFFFFF" stroke-width="3" stroke-miterlimit="10" d="M1050.5,508.753c0,2.069-1.678,3.747-3.747,3.747
		h-6.506c-2.069,0-3.747-1.678-3.747-3.747v-6.506c0-2.069,1.678-3.747,3.747-3.747h6.506c2.069,0,3.747,1.678,3.747,3.747V508.753z
		"/>
	<path fill="none" stroke="#FFFFFF" stroke-width="3" stroke-miterlimit="10" d="M963.5,415.753c0,2.069-1.678,3.747-3.747,3.747
		h-6.506c-2.069,0-3.747-1.678-3.747-3.747v-6.506c0-2.069,1.678-3.747,3.747-3.747h6.506c2.069,0,3.747,1.678,3.747,3.747V415.753z
		"/>
	<path fill="none" stroke="#FFFFFF" stroke-width="3" stroke-miterlimit="10" d="M1097.5,421.753c0,2.069-1.678,3.747-3.747,3.747
		h-6.506c-2.069,0-3.747-1.678-3.747-3.747v-6.506c0-2.069,1.678-3.747,3.747-3.747h6.506c2.069,0,3.747,1.678,3.747,3.747V421.753z
		"/>
	<path fill="none" stroke="#FFFFFF" stroke-width="3" stroke-miterlimit="10" d="M1007.369,528.914
		c0.007-2.069,1.689-3.742,3.759-3.736l6.506,0.02c2.069,0.006,3.742,1.688,3.735,3.758l-0.019,6.506
		c-0.007,2.069-1.688,3.742-3.759,3.736l-6.506-0.02c-2.068-0.006-3.741-1.689-3.735-3.758L1007.369,528.914z"/>
</g>
</svg>
