<?xml version="1.0" encoding="utf-8"?>
<!-- Generator: Adobe Illustrator 16.0.0, SVG Export Plug-In . SVG Version: 6.00 Build 0)  -->
<!DOCTYPE svg PUBLIC "-//W3C//DTD SVG 1.1//EN" "http://www.w3.org/Graphics/SVG/1.1/DTD/svg11.dtd">
<svg version="1.1" id="Calque_1" xmlns="http://www.w3.org/2000/svg" xmlns:xlink="http://www.w3.org/1999/xlink" x="0px" y="0px"
	 width="960px" height="560px" viewBox="0 0 960 560" enable-background="new 0 0 960 560" xml:space="preserve">
<path fill="none" stroke="#000000" stroke-width="12" stroke-miterlimit="10" d="M35.3673641,112.529297 C40.8809183,112.529297 51.7540512,112.529297 67.9867628,112.529297 C60.301695,102.53776 56.459161,91.1822917 56.459161,78.4628906 C67.9867628,92.5771484 93.6134579,95.8808594 102.337091,73.9023438 C111.060724,51.9238281 87.0333798,35.1298828 71.9572079,40.6386719 C82.3312313,27.3115234 76.0675595,0 51.6290829,0 C27.1906063,0 20.5890438,28.1669922 31.4425595,40.6386719 C20.8243954,35.4130859 -4.19085428,48.1464371 0.603692268,70.0234375 C5.39823881,91.9004379 31.6515438,97.9189453 46.7687313,78.4628906 C47.9750977,97.1577148 42.9697266,105.318848 35.3673641,112.529297 Z"/>
</svg>
