<?xml version="1.0" encoding="utf-8"?>
<!-- Generator: Adobe Illustrator 16.0.0, SVG Export Plug-In . SVG Version: 6.00 Build 0)  -->
<!DOCTYPE svg PUBLIC "-//W3C//DTD SVG 1.1//EN" "http://www.w3.org/Graphics/SVG/1.1/DTD/svg11.dtd">
<svg version="1.1" id="Calque_1" xmlns="http://www.w3.org/2000/svg" xmlns:xlink="http://www.w3.org/1999/xlink" x="0px" y="0px"
	 width="175.045px" height="341.021px" viewBox="334.902 170.468 175.045 341.021"
	 enable-background="new 334.902 170.468 175.045 341.021" xml:space="preserve">
<rect x="334.902" y="170.468" width="175.045" height="341.021"/>
<g>
	<circle fill="#DCFF23" cx="446.925" cy="287.49" r="13.022"/>
	<g>
		<circle fill="#DCFF23" cx="377.925" cy="321.49" r="13.022"/>
		<g>
			<circle fill="#0CFF28" cx="347.925" cy="215.49" r="13.022"/>
			<circle fill="#0CFF28" cx="458.88" cy="378.467" r="13.022"/>
			<circle fill="#0CFF28" cx="470.925" cy="183.49" r="13.022"/>
			<circle fill="#0CFF28" cx="496.925" cy="262.49" r="13.022"/>
			<circle fill="#0CFF28" cx="446.925" cy="245.49" r="13.022"/>
			<circle fill="#0CFF28" cx="464.925" cy="321.49" r="13.022"/>
			<circle fill="#0CFF28" cx="399.925" cy="222.49" r="13.022"/>
			<circle fill="#0CFF28" cx="347.925" cy="311.49" r="13.022"/>
			<circle fill="#00F4E9" cx="354.925" cy="191.49" r="13.022"/>
			<circle fill="#00F4E9" cx="486.88" cy="355.467" r="13.022"/>
			<circle fill="#00F4E9" cx="480.88" cy="445.467" r="13.021"/>
			<circle fill="#00F4E9" cx="491.925" cy="197.49" r="13.022"/>
			<circle fill="#00F4E9" cx="496.925" cy="285.49" r="13.022"/>
			<circle fill="#00F4E9" cx="446.925" cy="224.49" r="13.022"/>
			<circle fill="#00F4E9" cx="446.925" cy="308.49" r="13.022"/>
			<circle fill="#00F4E9" cx="390.925" cy="245.49" r="13.022"/>
			<circle fill="#00F4E9" cx="354.925" cy="321.49" r="13.022"/>
			<circle fill="#DCFF23" cx="377.925" cy="183.49" r="13.022"/>
			<circle fill="#DCFF23" cx="478.88" cy="373.467" r="13.022"/>
			<circle fill="#DCFF23" cx="480.88" cy="471.467" r="13.021"/>
			<circle fill="#DCFF23" cx="496.925" cy="219.49" r="13.022"/>
			<circle fill="#DCFF23" cx="494.925" cy="308.49" r="13.022"/>
			<circle fill="#DCFF23" cx="448.925" cy="202.49" r="13.022"/>
			<circle fill="#DCFF23" cx="373.925" cy="268.49" r="13.022"/>
			<circle fill="#FF0000" cx="396.925" cy="196.49" r="13.022"/>
			<circle fill="#FF0000" cx="496.925" cy="241.49" r="13.022"/>
			<circle fill="#FF0000" cx="480.925" cy="321.49" r="13.022"/>
			<circle fill="#FF0000" cx="446.925" cy="268.49" r="13.022"/>
			<circle fill="#FF0000" cx="360.925" cy="291.49" r="13.022"/>
			<circle fill="#FF0000" cx="399.925" cy="321.49" r="13.022"/>
			<circle fill="#0CFF28" cx="365.88" cy="392.467" r="13.022"/>
			<circle fill="#0CFF28" cx="417.88" cy="399.467" r="13.022"/>
			<circle fill="#0CFF28" cx="365.88" cy="488.467" r="13.021"/>
			<circle fill="#0CFF28" cx="480.88" cy="419.467" r="13.021"/>
			<circle fill="#00F4E9" cx="372.88" cy="368.467" r="13.022"/>
			<circle fill="#00F4E9" cx="408.88" cy="422.467" r="13.021"/>
			<circle fill="#00F4E9" cx="372.88" cy="498.467" r="13.021"/>
			<circle fill="#DCFF23" cx="395.88" cy="360.467" r="13.022"/>
			<circle fill="#DCFF23" cx="391.88" cy="445.467" r="13.021"/>
			<circle fill="#DCFF23" cx="395.88" cy="498.467" r="13.021"/>
			<circle fill="#FF0000" cx="414.88" cy="373.467" r="13.022"/>
			<circle fill="#FF0000" cx="480.88" cy="396.467" r="13.022"/>
			<circle fill="#FF0000" cx="480.88" cy="495.467" r="13.021"/>
			<circle fill="#FF0000" cx="378.88" cy="468.467" r="13.021"/>
			<circle fill="#FF0000" cx="417.88" cy="498.467" r="13.021"/>
		</g>
	</g>
</g>
</svg>
