<?xml version="1.0" encoding="utf-8"?>
<!-- Generator: Adobe Illustrator 16.0.0, SVG Export Plug-In . SVG Version: 6.00 Build 0)  -->
<!DOCTYPE svg PUBLIC "-//W3C//DTD SVG 1.1//EN" "http://www.w3.org/Graphics/SVG/1.1/DTD/svg11.dtd">
<svg version="1.1" id="Calque_1" xmlns="http://www.w3.org/2000/svg" xmlns:xlink="http://www.w3.org/1999/xlink" x="0px" y="0px"
	 width="1281px" height="807px" viewBox="0 0 1281 807" enable-background="new 0 0 1281 807" xml:space="preserve">
<rect x="1" width="1280" height="807"/>
<rect id="footer_smartphone_1_" x="478" y="729" display="none" fill="#B3B3B3" width="373" height="71"/>
<rect id="footer_web_left_1_" x="105" y="729" display="none" fill="#B3B3B3" width="373" height="71"/>
<rect id="footer_web_right_2_" x="851" y="729" display="none" fill="#B3B3B3" width="373" height="71"/>
<rect id="header_smartphone_1_" x="478" display="none" fill="#B3B3B3" width="373" height="71"/>
<rect id="hearder_web_left_1_" x="105" display="none" fill="#B3B3B3" width="373" height="71"/>
<rect id="hearder_web_right_1_" x="851" display="none" fill="#B3B3B3" width="373" height="71"/>
<rect id="merge_3_" display="none" width="105" height="807"/>
<rect id="merge_2_" x="1175" display="none" width="105" height="807"/>
<line stroke="#000000" stroke-miterlimit="10" x1="771" y1="729.5" x2="716" y2="729.5"/>
<path id="_x31_" fill="none" stroke="#FFFFFF" stroke-miterlimit="10" d="M832.5,341v162l-24-0.5V379l-21,1v-18
	c0,0,25.833-2.333,27.833-19.333L832.5,341z"/>
<path id="_x32__1_" fill="#FFFFFF" stroke="#FFFFFF" stroke-miterlimit="10" d="M525.041,390.5h-0.833h-23.667
	c0,0,0.335-27.021,6.001-32.688c0,0,39.874-50.844,70.666,9.047c0,6.333,3.334,29.966-3.333,40.634c-6.667,10.666-3,3.982-8,12.648
	s-21,30.658-21,30.658l-12.333,17.558l-4,6.143H578.5v25h-78v-25.709l49.938-75.227c0,0,6.885-9.773,4.553-19.773
	c-2.334-10-1.307-13.916-9.058-17.667s-12.696,0.333-14.696,2.667s-5.348,9-6.014,11.333l0.409,5.083l0.413,10.521L525.041,390.5z"
	/>
<path id="_x30_" fill="none" stroke="#FFFFFF" stroke-miterlimit="10" d="M599.5,474V374c0,0,34.5-75,74.5-5.5s0,0.667,0,0.667
	L674.667,472C674.667,472,642.333,541,599.5,474z"/>
<path fill="none" stroke="#FFFFFF" stroke-miterlimit="10" d="M623.5,470v-95c0,0,13-27,26,0v93C649.5,468,642.375,489.5,623.5,470z
	"/>
<path id="_x32__2_" fill="#FFFFFF" stroke="#FFFFFF" stroke-miterlimit="10" d="M718.041,393.5h-0.833h-23.667
	c0,0,0.335-27.021,6.001-32.688c0,0,39.874-50.844,70.666,9.047c0,6.333,3.334,29.966-3.333,40.634c-6.667,10.666-3,3.982-8,12.648
	s-21,30.658-21,30.658l-12.333,17.558l-4,6.143H771.5v25h-78v-25.709l49.938-75.227c0,0,6.885-9.773,4.553-19.773
	c-2.334-10-1.307-13.916-9.058-17.667s-12.696,0.333-14.696,2.667s-5.348,9-6.014,11.333l0.409,5.083l0.413,10.521L718.041,393.5z"
	/>
<path fill="none" stroke="#FFFFFF" stroke-width="2" stroke-miterlimit="10" d="M685,601c0,6.627-5.373,12-12,12h-16
	c-6.627,0-12-5.373-12-12v-16c0-6.627,5.373-12,12-12h16c6.627,0,12,5.373,12,12V601z"/>
<path fill="none" stroke="#FFFFFF" stroke-width="2" stroke-miterlimit="10" d="M808,685c0,6.627-5.373,12-12,12h-16
	c-6.627,0-12-5.373-12-12v-16c0-6.627,5.373-12,12-12h16c6.627,0,12,5.373,12,12V685z"/>
<path fill="none" stroke="#FFFFFF" stroke-width="2" stroke-miterlimit="10" d="M828,586c0,6.627-5.373,12-12,12h-16
	c-6.627,0-12-5.373-12-12v-16c0-6.627,5.373-12,12-12h16c6.627,0,12,5.373,12,12V586z"/>
<path fill="none" stroke="#FFFFFF" stroke-width="2" stroke-miterlimit="10" d="M752,546c0,6.627-5.373,12-12,12h-16
	c-6.627,0-12-5.373-12-12v-16c0-6.627,5.373-12,12-12h16c6.627,0,12,5.373,12,12V546z"/>
<path fill="none" stroke="#FFFFFF" stroke-width="2" stroke-miterlimit="10" d="M411,695c0,6.627-5.373,12-12,12h-16
	c-6.627,0-12-5.373-12-12v-16c0-6.627,5.373-12,12-12h16c6.627,0,12,5.373,12,12V695z"/>
<path fill="none" stroke="#FFFFFF" stroke-width="2" stroke-miterlimit="10" d="M705,310c0,6.627-5.373,12-12,12h-16
	c-6.627,0-12-5.373-12-12v-16c0-6.627,5.373-12,12-12h16c6.627,0,12,5.373,12,12V310z"/>
<path fill="none" stroke="#FFFFFF" stroke-width="2" stroke-miterlimit="10" d="M799,304c0,6.627-5.373,12-12,12h-16
	c-6.627,0-12-5.373-12-12v-16c0-6.627,5.373-12,12-12h16c6.627,0,12,5.373,12,12V304z"/>
<path fill="none" stroke="#FFFFFF" stroke-width="2" stroke-miterlimit="10" d="M1092,397c0,6.627-5.373,12-12,12h-16
	c-6.627,0-12-5.373-12-12v-16c0-6.627,5.373-12,12-12h16c6.627,0,12,5.373,12,12V397z"/>
<path fill="none" stroke="#FFFFFF" stroke-width="2" stroke-miterlimit="10" d="M1224,508c0,6.627-5.373,12-12,12h-16
	c-6.627,0-12-5.373-12-12v-16c0-6.627,5.373-12,12-12h16c6.627,0,12,5.373,12,12V508z"/>
<path fill="none" stroke="#FFFFFF" stroke-width="2" stroke-miterlimit="10" d="M596,626c0,6.627-5.373,12-12,12h-16
	c-6.627,0-12-5.373-12-12v-16c0-6.627,5.373-12,12-12h16c6.627,0,12,5.373,12,12V626z"/>
<path fill="none" stroke="#FFFFFF" stroke-width="2" stroke-miterlimit="10" d="M520,561c0,6.627-5.373,12-12,12h-16
	c-6.627,0-12-5.373-12-12v-16c0-6.627,5.373-12,12-12h16c6.627,0,12,5.373,12,12V561z"/>
<path fill="none" stroke="#FFFFFF" stroke-width="2" stroke-miterlimit="10" d="M902,266c0,6.627-5.373,12-12,12h-16
	c-6.627,0-12-5.373-12-12v-16c0-6.627,5.373-12,12-12h16c6.627,0,12,5.373,12,12V266z"/>
<path fill="none" stroke="#FFFFFF" stroke-width="2" stroke-miterlimit="10" d="M942,466c0,6.627-5.373,12-12,12h-16
	c-6.627,0-12-5.373-12-12v-16c0-6.627,5.373-12,12-12h16c6.627,0,12,5.373,12,12V466z"/>
<path fill="none" stroke="#FFFFFF" stroke-width="2" stroke-miterlimit="10" d="M942,646c0,6.627-5.373,12-12,12h-16
	c-6.627,0-12-5.373-12-12v-16c0-6.627,5.373-12,12-12h16c6.627,0,12,5.373,12,12V646z"/>
<path fill="none" stroke="#FFFFFF" stroke-width="2" stroke-miterlimit="10" d="M1195,646c0,6.627-5.373,12-12,12h-16
	c-6.627,0-12-5.373-12-12v-16c0-6.627,5.373-12,12-12h16c6.627,0,12,5.373,12,12V646z"/>
<path fill="none" stroke="#FFFFFF" stroke-width="2" stroke-miterlimit="10" d="M1092,541c0,6.627-5.373,12-12,12h-16
	c-6.627,0-12-5.373-12-12v-16c0-6.627,5.373-12,12-12h16c6.627,0,12,5.373,12,12V541z"/>
<path fill="none" stroke="#FFFFFF" stroke-width="2" stroke-miterlimit="10" d="M1195,306c0,6.627-5.373,12-12,12h-16
	c-6.627,0-12-5.373-12-12v-16c0-6.627,5.373-12,12-12h16c6.627,0,12,5.373,12,12V306z"/>
<path fill="none" stroke="#FFFFFF" stroke-width="2" stroke-miterlimit="10" d="M1026,304c0,6.627-5.373,12-12,12h-16
	c-6.627,0-12-5.373-12-12v-16c0-6.627,5.373-12,12-12h16c6.627,0,12,5.373,12,12V304z"/>
<path fill="none" stroke="#FFFFFF" stroke-width="2" stroke-miterlimit="10" d="M905,342c0,6.627-5.373,12-12,12h-16
	c-6.627,0-12-5.373-12-12v-16c0-6.627,5.373-12,12-12h16c6.627,0,12,5.373,12,12V342z"/>
<path fill="none" stroke="#FFFFFF" stroke-width="2" stroke-miterlimit="10" d="M935,174c0,6.627-5.373,12-12,12h-16
	c-6.627,0-12-5.373-12-12v-16c0-6.627,5.373-12,12-12h16c6.627,0,12,5.373,12,12V174z"/>
<path fill="none" stroke="#FFFFFF" stroke-width="2" stroke-miterlimit="10" d="M257,246c0,6.627-5.373,12-12,12h-16
	c-6.627,0-12-5.373-12-12v-16c0-6.627,5.373-12,12-12h16c6.627,0,12,5.373,12,12V246z"/>
<path fill="none" stroke="#FFFFFF" stroke-width="2" stroke-miterlimit="10" d="M411,226c0,6.627-5.373,12-12,12h-16
	c-6.627,0-12-5.373-12-12v-16c0-6.627,5.373-12,12-12h16c6.627,0,12,5.373,12,12V226z"/>
<path fill="none" stroke="#FFFFFF" stroke-width="2" stroke-miterlimit="10" d="M576,174c0,6.627-5.373,12-12,12h-16
	c-6.627,0-12-5.373-12-12v-16c0-6.627,5.373-12,12-12h16c6.627,0,12,5.373,12,12V174z"/>
<path fill="none" stroke="#FFFFFF" stroke-width="2" stroke-miterlimit="10" d="M556,277c0,6.627-5.373,12-12,12h-16
	c-6.627,0-12-5.373-12-12v-16c0-6.627,5.373-12,12-12h16c6.627,0,12,5.373,12,12V277z"/>
<path fill="none" stroke="#FFFFFF" stroke-width="2" stroke-miterlimit="10" d="M140,458c0,6.627-5.373,12-12,12h-16
	c-6.627,0-12-5.373-12-12v-16c0-6.627,5.373-12,12-12h16c6.627,0,12,5.373,12,12V458z"/>
<path fill="none" stroke="#FFFFFF" stroke-width="2" stroke-miterlimit="10" d="M160,241c0,6.627-5.373,12-12,12h-16
	c-6.627,0-12-5.373-12-12v-16c0-6.627,5.373-12,12-12h16c6.627,0,12,5.373,12,12V241z"/>
<path fill="none" stroke="#FFFFFF" stroke-width="2" stroke-miterlimit="10" d="M336,554c0,6.627-5.373,12-12,12h-16
	c-6.627,0-12-5.373-12-12v-16c0-6.627,5.373-12,12-12h16c6.627,0,12,5.373,12,12V554z"/>
<path fill="none" stroke="#FFFFFF" stroke-width="2" stroke-miterlimit="10" d="M105,611c0,6.627-5.373,12-12,12H77
	c-6.627,0-12-5.373-12-12v-16c0-6.627,5.373-12,12-12h16c6.627,0,12,5.373,12,12V611z"/>
<path fill="none" stroke="#FFFFFF" stroke-width="2" stroke-miterlimit="10" d="M316,407c0,6.627-5.373,12-12,12h-16
	c-6.627,0-12-5.373-12-12v-16c0-6.627,5.373-12,12-12h16c6.627,0,12,5.373,12,12V407z"/>
</svg>
