<?xml version="1.0" encoding="utf-8"?>
<!-- Generator: Adobe Illustrator 16.0.0, SVG Export Plug-In . SVG Version: 6.00 Build 0)  -->
<!DOCTYPE svg PUBLIC "-//W3C//DTD SVG 1.1//EN" "http://www.w3.org/Graphics/SVG/1.1/DTD/svg11.dtd">
<svg version="1.1" xmlns="http://www.w3.org/2000/svg" xmlns:xlink="http://www.w3.org/1999/xlink" x="0px" y="0px" width="1280px"
	 height="807px" viewBox="0 0 1280 807" enable-background="new 0 0 1280 807" xml:space="preserve">
<g id="Fond_2_">
	<g id="Fond_1_">
		<g id="Fond">
			<rect y="0" width="1280" height="807"/>
			<rect id="footer_smartphone" x="478" y="729" display="none" fill="#B3B3B3" width="373" height="71"/>
			<rect id="footer_web_left" x="105" y="729" display="none" fill="#B3B3B3" width="373" height="71"/>
			<rect id="footer_web_right_1_" x="851" y="729" display="none" fill="#B3B3B3" width="373" height="71"/>
			<rect id="header_smartphone" x="478" y="0" display="none" fill="#B3B3B3" width="373" height="71"/>
			<rect id="hearder_web_left" x="105" y="0" display="none" fill="#B3B3B3" width="373" height="71"/>
			<rect id="hearder_web_right" x="851" y="0" display="none" fill="#B3B3B3" width="373" height="71"/>
			<rect id="merge" y="0" display="none" width="105" height="807"/>
			<rect id="merge_1_" x="1175" y="0" display="none" width="105" height="807"/>
		</g>
	</g>
</g>
<g id="carreArrondie">
	<path id="roundsquare_30_" fill="none" stroke="#FFFFFF" stroke-width="2" stroke-miterlimit="10" d="M160.713,129.927
		c0,6.627-5.373,12-12,12h-16c-6.627,0-12-5.373-12-12v-16c0-6.629,5.373-12,12-12h16c6.627,0,12,5.371,12,12V129.927z"/>
	<path id="roundsquare_1_" fill="none" stroke="#FFFFFF" stroke-width="2" stroke-miterlimit="10" d="M1154.188,689.075
		c0,6.627-5.373,12-12,12h-15.998c-6.627,0-12-5.373-12-12v-16c0-6.629,5.373-12,12-12h15.998c6.627,0,12,5.371,12,12V689.075z"/>
	<path id="roundsquare_2_" fill="none" stroke="#FFFFFF" stroke-width="2" stroke-miterlimit="10" d="M1154.188,129.927
		c0,6.627-5.373,12-12,12h-15.998c-6.627,0-12-5.373-12-12v-16c0-6.629,5.373-12,12-12h15.998c6.627,0,12,5.371,12,12V129.927z"/>
	<path id="roundsquare_3_" fill="none" stroke="#FFFFFF" stroke-width="2" stroke-miterlimit="10" d="M160.713,679.261
		c0,6.627-5.373,12-12,12h-15.999c-6.627,0-12-5.373-12-12v-16c0-6.629,5.373-12,12-12h15.999c6.627,0,12,5.371,12,12V679.261z"/>
	<path id="roundsquare_4_" fill="none" stroke="#FFFFFF" stroke-width="2" stroke-miterlimit="10" d="M1126.566,498.587
		c0,6.627-5.373,12-12,12h-15.999c-6.627,0-12-5.373-12-12v-16c0-6.631,5.373-12,12-12h15.999c6.627,0,12,5.369,12,12V498.587z"/>
	<path id="roundsquare_5_" fill="none" stroke="#FFFFFF" stroke-width="2" stroke-miterlimit="10" d="M910.999,267.599
		c0,6.627-5.373,12-12,12H883c-6.627,0-12-5.373-12-12v-16c0-6.629,5.373-12,12-12h15.999c6.627,0,12,5.371,12,12V267.599z"/>
	<path id="roundsquare_6_" fill="none" stroke="#FFFFFF" stroke-width="2" stroke-miterlimit="10" d="M614.215,261.599
		c0,6.627-5.373,12-12,12h-15.999c-6.627,0-12-5.373-12-12v-16c0-6.629,5.373-12,12-12h15.999c6.627,0,12,5.371,12,12V261.599z"/>
	<path id="roundsquare_7_" fill="none" stroke="#FFFFFF" stroke-width="2" stroke-miterlimit="10" d="M160.713,525.44
		c0,6.627-5.373,12-12,12h-15.999c-6.627,0-12-5.373-12-12v-16c0-6.629,5.373-12,12-12h15.999c6.627,0,12,5.371,12,12V525.44z"/>
	<path id="roundsquare_8_" fill="none" stroke="#FFFFFF" stroke-width="2" stroke-miterlimit="10" d="M818.205,212.102
		c0,6.627-5.373,12-12,12h-15.998c-6.627,0-12-5.373-12-12v-16c0-6.629,5.373-12,12-12h15.998c6.627,0,12,5.371,12,12V212.102z"/>
	<path id="roundsquare_9_" fill="none" stroke="#FFFFFF" stroke-width="2" stroke-miterlimit="10" d="M965.872,659.261
		c0,6.627-5.373,12-12,12h-15.999c-6.627,0-12-5.373-12-12v-16c0-6.629,5.373-12,12-12h15.999c6.627,0,12,5.371,12,12V659.261z"/>
	<path id="roundsquare_10_" fill="none" stroke="#FFFFFF" stroke-width="2" stroke-miterlimit="10" d="M345.729,420.09
		c0,6.627-5.373,12-12,12H317.73c-6.627,0-12-5.373-12-12v-16c0-6.629,5.373-12,12-12h15.999c6.627,0,12,5.371,12,12V420.09z"/>
	<path id="roundsquare_45_" fill="none" stroke="#FFFFFF" stroke-width="2" stroke-miterlimit="10" d="M614.215,420.09
		c0,6.627-5.373,12-12,12h-15.999c-6.627,0-12-5.373-12-12v-16c0-6.629,5.373-12,12-12h15.999c6.627,0,12,5.371,12,12V420.09z"/>
	<path id="roundsquare_46_" fill="none" stroke="#FFFFFF" stroke-width="2" stroke-miterlimit="10" d="M910.999,369.5
		c0,6.627-5.373,12-12,12H883c-6.627,0-12-5.373-12-12v-16c0-6.629,5.373-12,12-12h15.999c6.627,0,12,5.371,12,12V369.5z"/>
	<path id="roundsquare_47_" fill="none" stroke="#FFFFFF" stroke-width="2" stroke-miterlimit="10" d="M733.087,512.765
		c0,6.627-5.373,12-12,12h-15.999c-6.627,0-12-5.373-12-12v-16c0-6.629,5.373-12,12-12h15.999c6.627,0,12,5.371,12,12V512.765z"/>
	<path id="roundsquare_48_" fill="none" stroke="#FFFFFF" stroke-width="2" stroke-miterlimit="10" d="M660,605.44
		c0,6.627-5.373,12-12,12h-15.999c-6.627,0-12-5.373-12-12v-16c0-6.629,5.373-12,12-12H648c6.627,0,12,5.371,12,12V605.44z"/>
	<path id="roundsquare_11_" fill="none" stroke="#FFFFFF" stroke-width="2" stroke-miterlimit="10" d="M607.426,669.075
		c0,6.627-5.373,12-12,12h-15.999c-6.627,0-12-5.373-12-12v-16c0-6.629,5.373-12,12-12h15.999c6.627,0,12,5.371,12,12V669.075z"/>
	<path id="roundsquare_12_" fill="none" stroke="#FFFFFF" stroke-width="2" stroke-miterlimit="10" d="M1037.5,183.603
		c0,6.627-5.373,12-12,12h-15.999c-6.627,0-12-5.373-12-12v-16c0-6.629,5.373-12,12-12h15.999c6.627,0,12,5.371,12,12V183.603z"/>
	<path id="roundsquare_13_" fill="none" stroke="#FFFFFF" stroke-width="2" stroke-miterlimit="10" d="M291.5,267.599
		c0,6.627-5.373,12-12,12h-15.999c-6.627,0-12-5.373-12-12v-16c0-6.629,5.373-12,12-12H279.5c6.627,0,12,5.371,12,12V267.599z"/>
	<path id="roundsquare_14_" fill="none" stroke="#FFFFFF" stroke-width="2" stroke-miterlimit="10" d="M291.5,594.58
		c0,6.629-5.373,12-12,12h-15.999c-6.627,0-12-5.371-12-12v-16c0-6.629,5.373-12,12-12H279.5c6.627,0,12,5.371,12,12V594.58z"/>
	<path id="roundsquare_15_" fill="none" stroke="#FFFFFF" stroke-width="2" stroke-miterlimit="10" d="M1037.5,594.58
		c0,6.629-5.373,12-12,12h-16c-6.627,0-12-5.371-12-12v-16c0-6.629,5.373-12,12-12h16c6.627,0,12,5.371,12,12V594.58z"/>
	<path id="roundsquare_16_" fill="none" stroke="#FFFFFF" stroke-width="2" stroke-miterlimit="10" d="M1037.5,267.599
		c0,6.627-5.373,12-12,12h-15.999c-6.627,0-12-5.373-12-12v-16c0-6.629,5.373-12,12-12h15.999c6.627,0,12,5.371,12,12V267.599z"/>
	<path id="roundsquare_17_" fill="none" stroke="#FFFFFF" stroke-width="2" stroke-miterlimit="10" d="M398.736,183.603
		c0,6.627-5.373,12-12,12h-15.999c-6.627,0-12-5.373-12-12v-16c0-6.629,5.373-12,12-12h15.999c6.627,0,12,5.371,12,12V183.603z"/>
	<path id="roundsquare_18_" fill="none" stroke="#FFFFFF" stroke-width="2" stroke-miterlimit="10" d="M372.622,565.44
		c0,6.627-5.373,12-12,12h-15.999c-6.627,0-12-5.373-12-12v-16c0-6.629,5.373-12,12-12h15.999c6.627,0,12,5.371,12,12V565.44z"/>
	<path id="roundsquare_19_" fill="none" stroke="#FFFFFF" stroke-width="2" stroke-miterlimit="10" d="M170.115,380.09
		c0,6.627-5.373,12-12,12h-15.999c-6.627,0-12-5.373-12-12v-16c0-6.629,5.373-12,12-12h15.999c6.627,0,12,5.371,12,12V380.09z"/>
	<path id="roundsquare_20_" fill="none" stroke="#FFFFFF" stroke-width="2" stroke-miterlimit="10" d="M1066.566,400.09
		c0,6.627-5.373,12-12,12h-15.999c-6.627,0-12-5.373-12-12v-16c0-6.629,5.373-12,12-12h15.999c6.627,0,12,5.371,12,12V400.09z"/>
	<path id="roundsquare_21_" fill="none" stroke="#FFFFFF" stroke-width="2" stroke-miterlimit="10" d="M890.999,605.44
		c0,6.627-5.373,12-12,12H863c-6.627,0-12-5.373-12-12v-16c0-6.629,5.373-12,12-12h15.999c6.627,0,12,5.371,12,12V605.44z"/>
	<path id="roundsquare_22_" fill="none" stroke="#FFFFFF" stroke-width="2" stroke-miterlimit="10" d="M733.087,261.599
		c0,6.627-5.373,12-12,12h-15.999c-6.627,0-12-5.373-12-12v-16c0-6.629,5.373-12,12-12h15.999c6.627,0,12,5.371,12,12V261.599z"/>
	<path id="roundsquare_23_" fill="none" stroke="#FFFFFF" stroke-width="2" stroke-miterlimit="10" d="M345.729,321.095
		c0,6.627-5.373,12-12,12H317.73c-6.627,0-12-5.373-12-12v-16c0-6.629,5.373-12,12-12h15.999c6.627,0,12,5.371,12,12V321.095z"/>
	<path id="roundsquare_24_" fill="none" stroke="#FFFFFF" stroke-width="2" stroke-miterlimit="10" d="M225.612,321.095
		c0,6.627-5.373,12-12,12h-15.999c-6.627,0-12-5.373-12-12v-16c0-6.629,5.373-12,12-12h15.999c6.627,0,12,5.371,12,12V321.095z"/>
	<path id="roundsquare_25_" fill="none" stroke="#FFFFFF" stroke-width="2" stroke-miterlimit="10" d="M1109.032,210
		c0,6.627-5.373,12-12,12h-15.999c-6.627,0-12-5.373-12-12v-16c0-6.629,5.373-12,12-12h15.999c6.627,0,12,5.371,12,12V210z"/>
	<path id="roundsquare_26_" fill="none" stroke="#FFFFFF" stroke-width="2" stroke-miterlimit="10" d="M950.999,210
		c0,6.627-5.373,12-12,12H923c-6.627,0-12-5.373-12-12v-16c0-6.629,5.373-12,12-12h15.999c6.627,0,12,5.371,12,12V210z"/>
	<path id="roundsquare_27_" fill="none" stroke="#FFFFFF" stroke-width="2" stroke-miterlimit="10" d="M1057.5,329.5
		c0,6.627-5.373,12-12,12h-15.999c-6.627,0-12-5.373-12-12v-16c0-6.631,5.373-12,12-12h15.999c6.627,0,12,5.369,12,12V329.5z"/>
	<path id="roundsquare_28_" fill="none" stroke="#FFFFFF" stroke-width="2" stroke-miterlimit="10" d="M225.612,230
		c0,6.627-5.373,12-12,12h-15.999c-6.627,0-12-5.373-12-12v-16c0-6.629,5.373-12,12-12h15.999c6.627,0,12,5.371,12,12V230z"/>
	<path id="roundsquare_29_" fill="none" stroke="#FFFFFF" stroke-width="2" stroke-miterlimit="10" d="M985.873,129.927
		c0,6.627-5.373,12-12,12h-16c-6.627,0-12-5.373-12-12v-16c0-6.629,5.373-12,12-12h16c6.627,0,12,5.371,12,12V129.927z"/>
	<path id="roundsquare_31_" fill="none" stroke="#FFFFFF" stroke-width="2" stroke-miterlimit="10" d="M1086.566,659.261
		c0,6.627-5.373,12-12,12h-15.999c-6.627,0-12-5.373-12-12v-16c0-6.629,5.373-12,12-12h15.999c6.627,0,12,5.371,12,12V659.261z"/>
	<path id="roundsquare_32_" fill="none" stroke="#FFFFFF" stroke-width="2" stroke-miterlimit="10" d="M458.087,215.5
		c0,6.627-5.373,12-12,12h-15.999c-6.627,0-12-5.373-12-12v-16c0-6.629,5.373-12,12-12h15.999c6.627,0,12,5.371,12,12V215.5z"/>
	<path id="roundsquare_33_" fill="none" stroke="#FFFFFF" stroke-width="2" stroke-miterlimit="10" d="M876.587,212.102
		c0,6.627-5.373,12-12,12h-15.999c-6.627,0-12-5.373-12-12v-16c0-6.629,5.373-12,12-12h15.999c6.627,0,12,5.371,12,12V212.102z"/>
	<path id="roundsquare_34_" fill="none" stroke="#FFFFFF" stroke-width="2" stroke-miterlimit="10" d="M742.587,200.099
		c0,6.627-5.373,12-12,12h-15.999c-6.627,0-12-5.373-12-12v-16c0-6.629,5.373-12,12-12h15.999c6.627,0,12,5.371,12,12V200.099z"/>
	<path id="roundsquare_35_" fill="none" stroke="#FFFFFF" stroke-width="2" stroke-miterlimit="10" d="M626.499,200.099
		c0,6.627-5.373,12-12,12H598.5c-6.627,0-12-5.373-12-12v-16c0-6.629,5.373-12,12-12h15.999c6.627,0,12,5.371,12,12V200.099z"/>
	<path id="roundsquare_36_" fill="none" stroke="#FFFFFF" stroke-width="2" stroke-miterlimit="10" d="M512.976,163.603
		c0,6.627-5.372,12-12,12h-15.999c-6.627,0-12-5.373-12-12v-16c0-6.629,5.373-12,12-12h15.999c6.628,0,12,5.371,12,12V163.603z"/>
	<path id="roundsquare_37_" fill="none" stroke="#FFFFFF" stroke-width="2" stroke-miterlimit="10" d="M472.976,625.44
		c0,6.627-5.372,12-12,12h-15.999c-6.627,0-12-5.373-12-12v-16c0-6.629,5.373-12,12-12h15.999c6.628,0,12,5.371,12,12V625.44z"/>
	<path id="roundsquare_38_" fill="none" stroke="#FFFFFF" stroke-width="2" stroke-miterlimit="10" d="M1106.566,585.44
		c0,6.627-5.373,12-12,12h-15.999c-6.627,0-12-5.373-12-12v-16c0-6.629,5.373-12,12-12h15.999c6.627,0,12,5.371,12,12V585.44z"/>
	<path id="roundsquare_39_" fill="none" stroke="#FFFFFF" stroke-width="2" stroke-miterlimit="10" d="M1134.188,360.09
		c0,6.627-5.373,12-12,12h-15.998c-6.627,0-12-5.373-12-12v-16c0-6.629,5.373-12,12-12h15.998c6.627,0,12,5.371,12,12V360.09z"/>
	<path id="roundsquare_40_" fill="none" stroke="#FFFFFF" stroke-width="2" stroke-miterlimit="10" d="M693.088,163.603
		c0,6.627-5.373,12-12,12h-15.999c-6.627,0-12-5.373-12-12v-16c0-6.629,5.373-12,12-12h15.999c6.627,0,12,5.371,12,12V163.603z"/>
	<path id="roundsquare_41_" fill="none" stroke="#FFFFFF" stroke-width="2" stroke-miterlimit="10" d="M452.976,281.599
		c0,6.627-5.372,12-12,12h-15.999c-6.625,0-12-5.373-12-12v-16c0-6.629,5.373-12,12-12h15.999c6.628,0,12,5.371,12,12V281.599z"/>
	<path id="roundsquare_42_" fill="none" stroke="#FFFFFF" stroke-width="2" stroke-miterlimit="10" d="M225.612,478.587
		c0,6.627-5.373,12-12,12h-15.999c-6.627,0-12-5.373-12-12v-16c0-6.631,5.373-12,12-12h15.999c6.627,0,12,5.369,12,12V478.587z"/>
	<path id="roundsquare_43_" fill="none" stroke="#FFFFFF" stroke-width="2" stroke-miterlimit="10" d="M352.622,679.261
		c0,6.627-5.373,12-12,12h-15.999c-6.627,0-12-5.373-12-12v-16c0-6.629,5.373-12,12-12h15.999c6.627,0,12,5.371,12,12V679.261z"/>
	<path id="roundsquare_44_" fill="none" stroke="#FFFFFF" stroke-width="2" stroke-miterlimit="10" d="M704.499,659.261
		c0,6.627-5.373,12-12,12H676.5c-6.627,0-12-5.373-12-12v-16c0-6.629,5.373-12,12-12h15.999c6.627,0,12,5.371,12,12V659.261z"/>
</g>
<g id="Ligne">
	
		<line fill="none" stroke="#FFFFFF" stroke-width="2" stroke-miterlimit="10" x1="160.713" y1="121.927" x2="378.736" y2="121.927"/>
	
		<line fill="none" stroke="#FFFFFF" stroke-width="2" stroke-miterlimit="10" x1="378.736" y1="121.927" x2="378.736" y2="155.603"/>
	<line fill="none" stroke="#FFFFFF" stroke-width="2" stroke-miterlimit="10" x1="378.736" y1="195.603" x2="378.736" y2="372.09"/>
	<line fill="none" stroke="#FFFFFF" stroke-width="2" stroke-miterlimit="10" x1="378.736" y1="372.09" x2="170.115" y2="372.09"/>
	<line fill="none" stroke="#FFFFFF" stroke-width="2" stroke-miterlimit="10" x1="150.115" y1="352.09" x2="150.115" y2="259.599"/>
	<line fill="none" stroke="#FFFFFF" stroke-width="2" stroke-miterlimit="10" x1="150.115" y1="259.599" x2="251.5" y2="259.599"/>
	
		<line fill="none" stroke="#FFFFFF" stroke-width="2" stroke-miterlimit="10" x1="269.725" y1="279.599" x2="269.725" y2="470.587"/>
	
		<line fill="none" stroke="#FFFFFF" stroke-width="2" stroke-miterlimit="10" x1="269.725" y1="470.587" x2="225.612" y2="470.587"/>
	<line fill="none" stroke="#FFFFFF" stroke-width="2" stroke-miterlimit="10" x1="150.115" y1="392.09" x2="150.115" y2="412.09"/>
	<line fill="none" stroke="#FFFFFF" stroke-width="2" stroke-miterlimit="10" x1="150.115" y1="412.09" x2="305.729" y2="412.09"/>
	<line fill="none" stroke="#FFFFFF" stroke-width="2" stroke-miterlimit="10" x1="325.729" y1="432.09" x2="325.729" y2="617.44"/>
	<line fill="none" stroke="#FFFFFF" stroke-width="2" stroke-miterlimit="10" x1="325.729" y1="617.44" x2="432.977" y2="617.44"/>
	<line fill="none" stroke="#FFFFFF" stroke-width="2" stroke-miterlimit="10" x1="472.976" y1="617.44" x2="587.427" y2="617.44"/>
	<line fill="none" stroke="#FFFFFF" stroke-width="2" stroke-miterlimit="10" x1="587.427" y1="617.44" x2="587.427" y2="641.075"/>
	<line fill="none" stroke="#FFFFFF" stroke-width="2" stroke-miterlimit="10" x1="587.427" y1="681.075" x2="587.427" y2="715"/>
	<line fill="none" stroke="#FFFFFF" stroke-width="2" stroke-miterlimit="10" x1="586.438" y1="715" x2="871" y2="715"/>
	<line fill="none" stroke="#FFFFFF" stroke-width="2" stroke-miterlimit="10" x1="871" y1="715.969" x2="871" y2="617.44"/>
	<line fill="none" stroke="#FFFFFF" stroke-width="2" stroke-miterlimit="10" x1="891" y1="597.44" x2="945.873" y2="597.44"/>
	<line fill="none" stroke="#FFFFFF" stroke-width="2" stroke-miterlimit="10" x1="945.873" y1="597.44" x2="945.873" y2="631.261"/>
	<line fill="none" stroke="#FFFFFF" stroke-width="2" stroke-miterlimit="10" x1="965.873" y1="651.261" x2="1017.5" y2="651.261"/>
	<line fill="none" stroke="#FFFFFF" stroke-width="2" stroke-miterlimit="10" x1="1017.5" y1="651.261" x2="1017.5" y2="606.58"/>
	<line fill="none" stroke="#FFFFFF" stroke-width="2" stroke-miterlimit="10" x1="1017.5" y1="567.354" x2="1017.5" y2="491.36"/>
	
		<line fill="none" stroke="#FFFFFF" stroke-width="2" stroke-miterlimit="10" x1="1016.5" y1="490.587" x2="1086.566" y2="490.587"/>
	
		<line fill="none" stroke="#FFFFFF" stroke-width="2" stroke-miterlimit="10" x1="1106.566" y1="510.587" x2="1106.566" y2="537.44"/>
	
		<line fill="none" stroke="#FFFFFF" stroke-width="2" stroke-miterlimit="10" x1="1106.566" y1="537.44" x2="1134.189" y2="537.44"/>
	
		<line fill="none" stroke="#FFFFFF" stroke-width="2" stroke-miterlimit="10" x1="1134.189" y1="537.44" x2="1134.189" y2="661.075"/>
	
		<line fill="none" stroke="#FFFFFF" stroke-width="2" stroke-miterlimit="10" x1="1114.189" y1="681.075" x2="452.977" y2="681.075"/>
	<line fill="none" stroke="#FFFFFF" stroke-width="2" stroke-miterlimit="10" x1="452.977" y1="681.075" x2="452.977" y2="637.44"/>
	<line fill="none" stroke="#FFFFFF" stroke-width="2" stroke-miterlimit="10" x1="432.977" y1="293.599" x2="432.977" y2="557.44"/>
	<line fill="none" stroke="#FFFFFF" stroke-width="2" stroke-miterlimit="10" x1="432.977" y1="557.44" x2="372.622" y2="557.44"/>
	<line fill="none" stroke="#FFFFFF" stroke-width="2" stroke-miterlimit="10" x1="271.5" y1="606.58" x2="271.5" y2="671.261"/>
	<line fill="none" stroke="#FFFFFF" stroke-width="2" stroke-miterlimit="10" x1="271.5" y1="671.261" x2="312.622" y2="671.261"/>
	
		<line fill="none" stroke="#FFFFFF" stroke-width="2" stroke-miterlimit="10" x1="1134.189" y1="141.927" x2="1134.189" y2="259.599"/>
	
		<line fill="none" stroke="#FFFFFF" stroke-width="2" stroke-miterlimit="10" x1="1134.189" y1="259.599" x2="1037.5" y2="259.599"/>
	<line fill="none" stroke="#FFFFFF" stroke-width="2" stroke-miterlimit="10" x1="891" y1="239.599" x2="891" y2="155.603"/>
	<line fill="none" stroke="#FFFFFF" stroke-width="2" stroke-miterlimit="10" x1="892" y1="155.603" x2="693.088" y2="155.603"/>
	<line fill="none" stroke="#FFFFFF" stroke-width="2" stroke-miterlimit="10" x1="140.713" y1="651.261" x2="140.713" y2="586.58"/>
	<line fill="none" stroke="#FFFFFF" stroke-width="2" stroke-miterlimit="10" x1="140.713" y1="586.58" x2="251.5" y2="586.58"/>
	<line fill="none" stroke="#FFFFFF" stroke-width="2" stroke-miterlimit="10" x1="160.713" y1="517.44" x2="271.5" y2="517.44"/>
	<line fill="none" stroke="#FFFFFF" stroke-width="2" stroke-miterlimit="10" x1="271.5" y1="517.44" x2="271.5" y2="566.58"/>
	<line fill="none" stroke="#FFFFFF" stroke-width="2" stroke-miterlimit="10" x1="140.713" y1="497.44" x2="140.713" y2="450.587"/>
	<line fill="none" stroke="#FFFFFF" stroke-width="2" stroke-miterlimit="10" x1="140.713" y1="450.587" x2="114.5" y2="450.587"/>
	<line fill="none" stroke="#FFFFFF" stroke-width="2" stroke-miterlimit="10" x1="114.5" y1="450.587" x2="114.5" y2="175.603"/>
	
		<line fill="none" stroke="#FFFFFF" stroke-width="2" stroke-miterlimit="10" x1="113.516" y1="175.603" x2="357.688" y2="175.603"/>
	
		<line fill="none" stroke="#FFFFFF" stroke-width="2" stroke-miterlimit="10" x1="733.087" y1="253.599" x2="798.206" y2="253.599"/>
	<line fill="none" stroke="#FFFFFF" stroke-width="2" stroke-miterlimit="10" x1="798.206" y1="254.347" x2="798.206" y2="224.85"/>
	
		<line fill="none" stroke="#FFFFFF" stroke-width="2" stroke-miterlimit="10" x1="945.873" y1="715.969" x2="1066.567" y2="715.969"/>
	
		<line fill="none" stroke="#FFFFFF" stroke-width="2" stroke-miterlimit="10" x1="1066.567" y1="715.969" x2="1066.567" y2="671.261"/>
	<line fill="none" stroke="#FFFFFF" stroke-width="2" stroke-miterlimit="10" x1="856.588" y1="182" x2="856.588" y2="121.927"/>
	
		<line fill="none" stroke="#FFFFFF" stroke-width="2" stroke-miterlimit="10" x1="856.588" y1="121.927" x2="945.873" y2="121.927"/>
	
		<line fill="none" stroke="#FFFFFF" stroke-width="2" stroke-miterlimit="10" x1="626.499" y1="192.099" x2="673.088" y2="192.099"/>
	
		<line fill="none" stroke="#FFFFFF" stroke-width="2" stroke-miterlimit="10" x1="673.088" y1="192.099" x2="673.088" y2="175.603"/>
	
		<line fill="none" stroke="#FFFFFF" stroke-width="2" stroke-miterlimit="10" x1="574.216" y1="253.599" x2="492.976" y2="253.599"/>
	
		<line fill="none" stroke="#FFFFFF" stroke-width="2" stroke-miterlimit="10" x1="492.976" y1="253.599" x2="492.976" y2="175.603"/>
	<line fill="none" stroke="#FFFFFF" stroke-width="2" stroke-miterlimit="10" x1="458.087" y1="207.5" x2="548" y2="207.5"/>
	<line fill="none" stroke="#FFFFFF" stroke-width="2" stroke-miterlimit="10" x1="548" y1="207.5" x2="548" y2="155.603"/>
	<line fill="none" stroke="#FFFFFF" stroke-width="2" stroke-miterlimit="10" x1="548" y1="155.603" x2="512.976" y2="155.603"/>
	
		<line fill="none" stroke="#FFFFFF" stroke-width="2" stroke-miterlimit="10" x1="1066.567" y1="392.09" x2="1109.032" y2="392.09"/>
	
		<line fill="none" stroke="#FFFFFF" stroke-width="2" stroke-miterlimit="10" x1="1109.032" y1="392.09" x2="1109.032" y2="470.587"/>
	<line fill="none" stroke="#FFFFFF" stroke-width="2" stroke-miterlimit="10" x1="1057.5" y1="321.5" x2="1089.033" y2="321.5"/>
	<line fill="none" stroke="#FFFFFF" stroke-width="2" stroke-miterlimit="10" x1="1089.033" y1="321.5" x2="1089.033" y2="222"/>
	
		<line fill="none" stroke="#FFFFFF" stroke-width="2" stroke-miterlimit="10" x1="225.612" y1="313.095" x2="305.729" y2="313.095"/>
	
		<line fill="none" stroke="#FFFFFF" stroke-width="2" stroke-miterlimit="10" x1="325.729" y1="293.095" x2="325.729" y2="221.031"/>
	<line fill="none" stroke="#FFFFFF" stroke-width="2" stroke-miterlimit="10" x1="326.688" y1="222" x2="228.88" y2="222"/>
	
		<line fill="none" stroke="#FFFFFF" stroke-width="2" stroke-miterlimit="10" x1="1017.501" y1="195.603" x2="1017.501" y2="239.599"/>
	
		<line fill="none" stroke="#FFFFFF" stroke-width="2" stroke-miterlimit="10" x1="997.501" y1="175.603" x2="965.873" y2="175.603"/>
	
		<line fill="none" stroke="#FFFFFF" stroke-width="2" stroke-miterlimit="10" x1="965.873" y1="175.603" x2="965.873" y2="141.927"/>
	<line fill="none" stroke="#FFFFFF" stroke-width="2" stroke-miterlimit="10" x1="950.999" y1="205.75" x2="965.873" y2="205.75"/>
	<line fill="none" stroke="#FFFFFF" stroke-width="2" stroke-miterlimit="10" x1="965.873" y1="205.75" x2="965.873" y2="175.603"/>
	<line fill="none" stroke="#FFFFFF" stroke-width="2" stroke-miterlimit="10" x1="985.873" y1="118.5" x2="1089.033" y2="118.5"/>
	
		<line fill="none" stroke="#FFFFFF" stroke-width="2" stroke-miterlimit="10" x1="1089.033" y1="117.531" x2="1089.033" y2="177.605"/>
	
		<line fill="none" stroke="#FFFFFF" stroke-width="2" stroke-miterlimit="10" x1="722.588" y1="172.099" x2="722.588" y2="121.927"/>
	
		<line fill="none" stroke="#FFFFFF" stroke-width="2" stroke-miterlimit="10" x1="722.588" y1="121.927" x2="945.873" y2="121.927"/>
	
		<line fill="none" stroke="#FFFFFF" stroke-width="2" stroke-miterlimit="10" x1="722.588" y1="121.927" x2="160.713" y2="121.927"/>
	
		<line fill="none" stroke="#FFFFFF" stroke-width="2" stroke-miterlimit="10" x1="945.873" y1="671.261" x2="945.873" y2="715.969"/>
	<line fill="none" stroke="#FFFFFF" stroke-width="2" stroke-miterlimit="10" x1="704.5" y1="651.261" x2="925.873" y2="651.261"/>
	<line fill="none" stroke="#FFFFFF" stroke-width="2" stroke-miterlimit="10" x1="140.713" y1="651.261" x2="140.713" y2="586.58"/>
	<line fill="none" stroke="#FFFFFF" stroke-width="2" stroke-miterlimit="10" x1="140.713" y1="586.58" x2="140.713" y2="537.44"/>
	<line fill="none" stroke="#FFFFFF" stroke-width="2" stroke-miterlimit="10" x1="160.713" y1="671.261" x2="271.5" y2="671.261"/>
	
		<line fill="none" stroke="#FFFFFF" stroke-width="2" stroke-miterlimit="10" x1="1114.188" y1="332.09" x2="1114.188" y2="259.599"/>
	<line fill="none" stroke="#FFFFFF" stroke-width="2" stroke-miterlimit="10" x1="1094.189" y1="355" x2="1037.5" y2="355"/>
	<line fill="none" stroke="#FFFFFF" stroke-width="2" stroke-miterlimit="10" x1="1037.5" y1="355" x2="1037.5" y2="341.5"/>
	<line fill="none" stroke="#FFFFFF" stroke-width="2" stroke-miterlimit="10" x1="345.729" y1="412.09" x2="574.216" y2="412.09"/>
	<line fill="none" stroke="#FFFFFF" stroke-width="2" stroke-miterlimit="10" x1="614.215" y1="420.09" x2="713.088" y2="420.09"/>
	<line fill="none" stroke="#FFFFFF" stroke-width="2" stroke-miterlimit="10" x1="713.088" y1="420.09" x2="713.088" y2="273.599"/>
	<line fill="none" stroke="#FFFFFF" stroke-width="2" stroke-miterlimit="10" x1="713.088" y1="420.09" x2="713.088" y2="484.765"/>
	<line fill="none" stroke="#FFFFFF" stroke-width="2" stroke-miterlimit="10" x1="663.651" y1="597.44" x2="713.088" y2="597.44"/>
	<line fill="none" stroke="#FFFFFF" stroke-width="2" stroke-miterlimit="10" x1="713.088" y1="597.44" x2="713.088" y2="524.765"/>
	<line fill="none" stroke="#FFFFFF" stroke-width="2" stroke-miterlimit="10" x1="733.087" y1="504.765" x2="892" y2="504.765"/>
	<line fill="none" stroke="#FFFFFF" stroke-width="2" stroke-miterlimit="10" x1="892" y1="504.765" x2="892" y2="381.5"/>
	<line fill="none" stroke="#FFFFFF" stroke-width="2" stroke-miterlimit="10" x1="890.999" y1="341.5" x2="890.999" y2="279.599"/>
</g>
</svg>
